<?xml version="1.0" encoding="utf-8"?>
<!-- Generator: Adobe Illustrator 23.0.3, SVG Export Plug-In . SVG Version: 6.00 Build 0)  -->
<svg version="1.1" id="Layer_1" xmlns="http://www.w3.org/2000/svg" xmlns:xlink="http://www.w3.org/1999/xlink" x="0px" y="0px"
	 viewBox="0 0 400 600" style="enable-background:new 0 0 400 600;" xml:space="preserve">
<style type="text/css">
	.st0{fill:#F2F2F2;}
	.st1{fill:#2F2E41;}
	.st2{fill:none;stroke:#3F3D56;stroke-miterlimit:10;}
	.st3{fill:#F50057;}
	.st4{fill:#FBBEBE;}
	.st5{opacity:0.1;enable-background:new    ;}
	.st6{fill:#3F3D56;}
	.st7{fill:#A0616A;}
	.st8{fill:#FF6584;}
	.st9{opacity:0.3;}
	.st10{fill:none;stroke:#607D8B;stroke-width:7.29;stroke-linecap:round;stroke-miterlimit:10;}
	.st11{fill:none;stroke:#37474F;stroke-width:7.29;stroke-linecap:round;stroke-miterlimit:10;}
	.st12{fill:url(#SVGID_1_);}
	.st13{fill:url(#SVGID_2_);}
	.st14{fill:#37474F;}
	.st15{fill:url(#SVGID_3_);}
	.st16{fill:url(#SVGID_4_);}
	.st17{fill:url(#SVGID_5_);}
	.st18{fill:#E0E0E0;}
	.st19{fill:url(#SVGID_6_);}
	.st20{fill:url(#SVGID_7_);}
	.st21{fill:#F5B89C;}
	.st22{fill:#F8C198;}
	.st23{fill:#263238;}
	.st24{fill:url(#SVGID_8_);}
	.st25{fill:url(#SVGID_9_);}
	.st26{fill:#FFFFFF;}
	.st27{fill:url(#SVGID_10_);}
	.st28{fill:#FF6347;}
	.st29{fill:url(#SVGID_11_);}
	.st30{fill:url(#SVGID_12_);}
	.st31{fill:#E53935;}
	.st32{opacity:0.2;enable-background:new    ;}
</style>
<path class="st0" d="M151.8,76.2c-0.2,13.1-7.8,24.9-19.7,30.6c-4.6,2.2-9.6,3.3-14.6,3.3c-0.7,0-1.4,0-2.2-0.1
	c-15.6-1-31.2-1-46.9,0c-0.7,0.1-1.4,0.1-2.2,0.1c-5.9,0-11.6-1.5-16.7-4.4c-10.7-6-17.3-17.2-17.6-29.5
	C31.6,56.8,46.9,41,66.1,40.9c10.2-0.1,19.4,4.4,25.7,11.5c6.3-7.1,15.5-11.5,25.7-11.5C136.8,41,152.1,56.8,151.8,76.2z"/>
<path class="st1" d="M132.1,106.7c-4.6,2.2-9.6,3.3-14.6,3.3c-0.7,0-1.4,0-2.2-0.1c-15.6-1-31.2-1-46.9,0c-0.7,0.1-1.4,0.1-2.2,0.1
	c-5.9,0-11.6-1.5-16.7-4.4c7.7-3.3,22.8-5.6,40.1-5.6C108.9,100.1,125.3,102.8,132.1,106.7z"/>
<path class="st2" d="M108.3,58.9c-0.8-0.7-1.9-0.9-2.9-0.4c-1.4,0.6-2,2.3-2,4c0.1,1.5,0.7,3,1.2,4.5c0.6,2,0.7,4.2,0.1,6.2
	c-0.7,2-2.2,3.8-4.3,4.3c-1.9,0.5-3.9,0-5.7-0.5"/>
<path class="st3" d="M111.7,55.7c0.1-0.9-0.6-1.7-1.5-1.7c-0.9-0.1-1.7,0.6-1.7,1.5l0,0l-0.2,3.3l3.3,0.2c0.9,0.1,1.7-0.6,1.7-1.5
	C113.3,56.6,112.6,55.8,111.7,55.7L111.7,55.7z"/>
<path class="st3" d="M108.2,64.3c0.1-0.9-0.6-1.7-1.5-1.7s-1.7,0.6-1.7,1.5l-0.2,3.3l3.3,0.2c0.9,0.1,1.7-0.6,1.7-1.5
	S109.1,64.3,108.2,64.3L108.2,64.3z"/>
<path class="st3" d="M103.5,55.2c-0.7-0.6-1.7-0.5-2.3,0.2c-0.6,0.7-0.5,1.7,0.2,2.3l0,0l2.5,2.1l2.1-2.5c0.6-0.7,0.5-1.7-0.2-2.3
	C105.1,54.4,104,54.5,103.5,55.2L103.5,55.2z"/>
<path class="st2" d="M123,57.4c-0.6-0.9-1.6-1.4-2.7-1.2c-1.5,0.2-2.6,1.7-2.9,3.3s-0.1,3.1-0.1,4.7c0,2.1-0.4,4.3-1.6,6
	c-1.2,1.7-3.1,3-5.2,3c-1.9,0-3.7-1-5.4-2"/>
<path class="st3" d="M127.1,55.3c0.3-0.9-0.2-1.8-1-2.1c-0.9-0.3-1.8,0.2-2.1,1l-1,3.1l3.1,1c0.9,0.3,1.8-0.2,2.1-1
	C128.4,56.5,127.9,55.6,127.1,55.3L127.1,55.3z"/>
<path class="st3" d="M121.5,62.5c0.3-0.9-0.2-1.8-1-2.1c-0.9-0.3-1.8,0.2-2.1,1l-1,3.1l3.1,1c0.9,0.3,1.8-0.2,2.1-1
	C122.8,63.8,122.3,62.8,121.5,62.5z"/>
<path class="st3" d="M119.4,52.5c-0.5-0.7-1.5-0.9-2.3-0.4c-0.7,0.5-0.9,1.5-0.4,2.3l0,0l1.9,2.7l2.7-1.9c0.7-0.5,0.9-1.5,0.4-2.3
	C121.1,52.2,120.1,52,119.4,52.5L119.4,52.5z"/>
<path class="st2" d="M116,35.6c1-0.2,2.1,0.2,2.7,1.1c0.9,1.3,0.5,3.1-0.4,4.4c-0.9,1.3-2.2,2.2-3.4,3.2c-1.5,1.4-2.8,3.2-3.3,5.2
	c-0.4,2-0.1,4.3,1.4,5.9c1.3,1.4,3.3,2,5.1,2.6"/>
<path class="st3" d="M114.7,31.2c0.4-0.8,1.4-1.1,2.2-0.7c0.8,0.4,1.1,1.4,0.7,2.2l0,0l-1.5,2.9l-2.9-1.5c-0.8-0.4-1.1-1.4-0.7-2.2
	C112.9,31,113.9,30.7,114.7,31.2z"/>
<path class="st3" d="M113.2,40.2c0.4-0.8,1.4-1.1,2.2-0.7c0.8,0.4,1.1,1.4,0.7,2.2l0,0l-1.5,2.9l-2.9-1.5c-0.8-0.4-1.1-1.4-0.7-2.2
	C111.5,40.1,112.4,39.8,113.2,40.2z"/>
<path class="st3" d="M122,35c0.9-0.1,1.7,0.5,1.9,1.4c0.1,0.9-0.5,1.7-1.4,1.9l0,0l-3.2,0.5l-0.5-3.2c-0.1-0.9,0.5-1.7,1.4-1.9
	C121,33.4,121.9,34.1,122,35L122,35z"/>
<rect x="85" y="70.2" class="st4" width="3" height="1.5"/>
<rect x="85" y="70.2" class="st5" width="3" height="1.5"/>
<circle class="st1" cx="79.5" cy="43.8" r="3.8"/>
<path class="st4" d="M88.2,69.4c0,0-1.2-0.4-1.4-0.2c-0.2,0.1,0.9,1.1,0.9,1.1L88.2,69.4z"/>
<path class="st5" d="M88.2,69.4c0,0-1.2-0.4-1.4-0.2c-0.2,0.1,0.9,1.1,0.9,1.1L88.2,69.4z"/>
<path class="st6" d="M79.9,100.2c0,0,2.8,0.4,3.3,0.4c0.5,0,1.8,0.5,1.1,1.1c-0.7,0.6-5.3,1.4-5.9,1.1c-0.6-0.4-1.4-1.4-0.9-1.5
	C78.1,101,79.9,100.2,79.9,100.2z"/>
<polygon class="st4" points="75,104.7 74,106.4 75.2,107 77.5,107.4 78.7,105.9 78.2,104.1 "/>
<path class="st1" d="M81.3,92.3c0,0-1.5,6.6-1.3,7c0.2,0.4,0.7,1.3,0.2,1.7c-0.5,0.4-2.4,0.5-2.4,0.5l0.6-3.5l0.9-4.2L81.3,92.3z"/>
<path class="st1" d="M77,78.3l1.5,7.1c0,0,0.2,3.5-0.4,4.8s-3.8,15.3-3.8,15.3s3.4,0.1,4.1-0.2c0.7-0.4,1.9-8.7,1.9-8.7
	s4-7.9,3.8-9.5c-0.1-1.5,0.6-9.5-0.4-10.1C82.8,76.4,77,78.3,77,78.3z"/>
<path class="st6" d="M77.3,106.9l1.4-1.4c0,0,3.8,1.9,4.4,2c0.6,0.1,1.9,1.1,0.6,1.4c-1.3,0.4-6.2,0.1-7.5,0c-1.2-0.1-3.6-0.2-3.3-1
	c0.3-0.7,1-3.3,1-3.3s0.3-0.4,0.6,0.1c0.2,0.6,0.3,1.4,0.8,1.4C75.8,106.2,77.3,106.9,77.3,106.9z"/>
<path class="st7" d="M95.8,76.2l3.4-0.2l2.3,1.2l-0.2,1.4l-1,0.2c0,0-2.7-1.1-4.2-0.7C94.5,78.5,95.8,76.2,95.8,76.2z"/>
<path class="st1" d="M99.8,76.7c0,0,1.3,1.4,0,2c0,0,0.2,0.4,1.2,0.6s2.3,1,2.7,1s1.9-0.2,1-1.5c-1-1.3-4.8-4.2-4.8-4.2
	S98.7,74,98.4,75c-0.4,1-0.6,1.2-0.6,1.2S99.5,76.5,99.8,76.7z"/>
<path class="st7" d="M89.7,88.3c0,0,1.1,4.1,1.1,4.3s1.4-1,1.4-1l0.2-2.2c0,0-1-1-1-1.5C91.5,87.3,89.7,88.3,89.7,88.3z"/>
<path class="st1" d="M91.8,91.2c0,0-0.9,1.1-1.4,0.7l0.4,4.1c0,0,0.2,2,1.1,1.2c0.9-0.9,1.7-5.1,1.7-5.1s1.2-2.5,0.2-2.9
	c-0.6-0.2-1.1-0.4-1.7-0.5C92.1,88.8,92.1,91.3,91.8,91.2z"/>
<path class="st8" d="M84,77.5l3.6,7.5c0,0,1.2,4.2,1.7,4.3c0.5,0.1,2.3-0.7,2.5-0.9c0.2-0.1-2-4.8-2-5.7s-2.8-5.6-2.8-5.6L84,77.5z"
	/>
<path class="st5" d="M84,77.5l3.6,7.5c0,0,1.2,4.2,1.7,4.3c0.5,0.1,2.3-0.7,2.5-0.9c0.2-0.1-2-4.8-2-5.7s-2.8-5.6-2.8-5.6L84,77.5z"
	/>
<path class="st8" d="M86.5,64.4c0,0,0.1,2.5-0.4,4.2c-0.5,1.7,0.6,7.2,0.6,7.2s1.8,0.1,2.3,0c0.5-0.1,7-0.2,7.3,0
	c0.4,0.2,0.2,4.4,0,4.3c-0.2-0.1-6.5-1.4-9.5-1c-3,0.5-3.4-0.2-3.5-0.5c-0.1-0.2-2.2-6.7-2.2-6.7l-0.7-3.1l-0.9-3.3l0.6-3.3
	L86.5,64.4z"/>
<circle class="st7" cx="79.2" cy="45.5" r="3.3"/>
<circle class="st4" cx="73.2" cy="53.1" r="3.3"/>
<path class="st7" d="M80.2,47.7c0,0,2.2,1.4,1.8,2.3c-0.4,0.9-1.3,1.8-1.3,1.8l-0.1,1.3l1.8,0.6l4.6,0.2c0,0-0.2-4.1-1.7-5.2
	c-1.4-1.1-3.1-1.8-3.4-2.8C81.6,45,80.2,47.7,80.2,47.7z"/>
<path class="st7" d="M86.1,50.7c-0.8-1.5-3-1.3-3.5,0.3c-0.1,0.4-0.1,0.8,0.1,1.2c0.9,1.4,1.4,2.5,1.4,2.5l2.7-0.2
	C86.9,54.5,86.9,52.2,86.1,50.7z"/>
<path class="st1" d="M81,51.4c0,0-3.1,2-2.9,3.3s0.5,3.6,0.5,4.4s0.9,3.5,2,4c1.2,0.5,1.2-0.9,2.9,0.7c1.7,1.6,3.5,2.3,3.4,2.5
	c-0.1,0.2,0.5-2.2-0.5-3.1c-1-1-2-3.7-1.1-4.9c1-1.2,1.8-4.3,1.8-4.3s-0.1-0.7-0.9-0.6c-0.7,0.1-5.2-0.4-5.4-1
	C80.7,52.1,80.8,51.7,81,51.4z"/>
<path class="st1" d="M80.6,52.4c0,0,3.3-3.6,3.8-3.5c0.5,0.1,1.9,1.5,1.9,1.5l-1.9-1.3l-3.8,3.5V52.4z"/>
<path class="st4" d="M76,53.8c0,0,0.4,4.9,1,5.3c0.6,0.4-4.7,0.3-4.7,0.3s1.2-3.7,0.5-4.2C72.1,54.7,76,53.8,76,53.8z"/>
<path class="st6" d="M77.1,57.7c0,0-4.1-1.1-4.6-0.5c-0.5,0.6-1.4,5.8-1.4,5.8s0.5,3.5,1.3,6c0.9,2.5,1.9,11.4,2.8,11.4
	s2.3-1.3,2.7-1.3c0.4,0,2.5-1.1,3.8-0.9c0.7,0.1,1.5,0.1,2.3-0.1c0,0-0.6-5.1-2-6.4c-1.4-1.3-2.2-10.5-2.2-10.5S77.7,57.5,77.1,57.7
	z"/>
<path class="st4" d="M83.4,69.1c0,0,1.4,1.9,2.7,2h0.7c0,0-1.2,3.1-0.6,3.3c0.6,0.1,2.4-2.3,1.8-3.6c-0.6-1.3-2.4-3.4-2.4-3.4
	L83.4,69.1z"/>
<path class="st4" d="M88.2,69.1c0,0-2,1.9-1.2,2.8c0.9,0.9,1.9,0,1.9,0S89.8,70.7,88.2,69.1z"/>
<path class="st5" d="M88.2,69.1c0,0-2,1.9-1.2,2.8c0.9,0.9,1.9,0,1.9,0S89.8,70.7,88.2,69.1z"/>
<circle class="st1" cx="80.3" cy="43.1" r="3.8"/>
<circle class="st1" cx="82.1" cy="39.9" r="2.3"/>
<path class="st1" d="M80.3,39.1c0-1.2,0.9-2.2,2-2.3c-0.1,0-0.2,0-0.2,0c-1.2,0-2.3,1-2.3,2.3s1,2.3,2.3,2.3c0.1,0,0.2,0,0.2,0
	C81.2,41.3,80.3,40.3,80.3,39.1z"/>
<ellipse class="st1" cx="79" cy="44.7" rx="3.1" ry="2.3"/>
<path class="st1" d="M73.3,52c-0.1,0.2-0.1,0.4-0.1,0.7c0.1,0.2,0.2,0.3,0.3,0.5c0.2,0.3,0.1,0.7-0.2,0.9c-0.2-0.1-0.4-0.1-0.6-0.1
	c-0.2,0.1-0.3,0.2-0.3,0.4c0.1,0.3,0.4,0.4,0.6,0.7c0.1,0.2,0.2,0.4,0.2,0.6c0.1,0.3,0.2,0.6,0.2,1c0,0.3-0.1,0.7-0.5,0.7
	c-0.2,0.1-0.6-0.1-0.7-0.4c-0.2-0.2-0.3-0.5-0.5-0.7c-0.6-0.7-1.6-1.1-2.3-1.8c-0.9-0.9-1-2.2-0.7-3.3c0.1-0.4,0.4-0.9,0.7-1.1
	c0.4-0.3,0.9-0.4,1.3-0.6c0.4-0.2,0.8-0.6,1.2-0.9c0.4-0.3,0.9-0.6,1.5-0.5c0.4,0.1,0.7,0.2,1.1,0.4c0.4,0.1,0.9,0.1,1.2-0.1
	l-0.4,0.4c0.2,0.1,0.6,0.1,0.8,0.1c-0.1,0.2-0.3,0.4-0.6,0.5c0.2,0.1,0.4,0.2,0.7,0.2c-0.2,0.3-0.6,0.6-0.9,0.7
	c-0.2,0.1-0.4,0.1-0.6,0.1c-0.4,0.1-0.8,0.3-1.2,0.6c-0.2,0.1-0.4,0.2-0.4,0.5C73.2,51.5,73.4,51.7,73.3,52z"/>
<path class="st6" d="M74.7,58.9c0,0-1.1,4,0.9,4.8c2,0.9,5.9,4,6.6,5.1c0.7,1.1,1.5,1.4,1.5,1.4s2.9-2.4,2.3-3.1s-3-2.9-3-2.9
	S76.9,57.6,74.7,58.9z"/>
<path class="st7" d="M84.2,59.1c0,0-4.4-1.2-5.7-1.5c-1.4-0.2-4.8,0.1-4.1,0.7c0.7,0.6,4.9,1.1,4.9,1.1l5.1,1.9L84.2,59.1z"/>
<path class="st1" d="M84.2,54.1c0,0,0.4,2.4,0.4,3.3c0,0.9,0.6,1.5,0.1,1.5c-0.5,0-0.9-0.5-0.9,0s-0.7,3.4,0,3.4
	c0.7,0,2.5-0.5,2.9-0.5c0.4,0,1.5-0.2,1.4-1.5c-0.1-1.3-0.6-2.8-0.4-3c0.2-0.2,0.4-1.4,0.1-1.7c-0.2-0.2-0.9-1.8-0.9-1.8L84.2,54.1z
	"/>
<g class="st9">
	<path class="st3" d="M109.7,78.6c-0.4-0.1-0.9,0.2-0.9,0.7s0.2,0.9,0.7,0.9l0,0l1.7,0.2l0.2-1.7c0.1-0.4-0.2-0.9-0.7-0.9
		C110.2,77.8,109.7,78.1,109.7,78.6L109.7,78.6z"/>
</g>
<g class="st9">
	<path class="st3" d="M129.9,70.5c-0.4-0.2-0.9-0.1-1.2,0.3c-0.2,0.4-0.1,0.9,0.3,1.2l1.5,0.8l0.8-1.5c0.2-0.4,0.1-0.9-0.3-1.2
		C130.6,70,130.1,70.2,129.9,70.5L129.9,70.5L129.9,70.5z"/>
</g>
<g class="st9">
	<path class="st3" d="M120.9,82c-0.4-0.1-0.9,0.2-0.9,0.7c-0.1,0.4,0.2,0.9,0.7,0.9l0,0l1.7,0.2l0.2-1.7c0.1-0.4-0.2-0.9-0.7-0.9
		S121,81.5,120.9,82L120.9,82z"/>
</g>
<path class="st10" d="M146.1,545.5c-13.2-4.8-20.6-15.8-19-26.3l1.6,17.3c0.3,2.6,0.4,5.4-1.3,7.9c-2.2,3.1-7.6,5.7-12.4,5"/>
<path id="ffeed91e-fa36-4069-908b-8d6c36340b34" class="st11" d="M146,546.2c-13.2-4.8-21.1-15.5-19.4-26.1l1.6,17.3
	c0.3,2.6,0.4,5.4-1.3,7.9c-2.2,3.1-7.6,5.1-12.4,4.4"/>
<g>
	
		<linearGradient id="SVGID_1_" gradientUnits="userSpaceOnUse" x1="324.3306" y1="392.6863" x2="325.0506" y2="358.3533" gradientTransform="matrix(1.4614 2.665874e-02 3.368154e-02 1.0044 -419.6043 116.0214)">
		<stop  offset="0" style="stop-color:#808080;stop-opacity:0.25"/>
		<stop  offset="0.54" style="stop-color:#808080;stop-opacity:0.12"/>
		<stop  offset="1" style="stop-color:#808080;stop-opacity:0.1"/>
	</linearGradient>
	<path class="st12" d="M64.3,518.2l2.2-32.8c0-0.4,0.3-0.7,0.7-0.6l2.9,0.2c0.4,0,0.7,0.3,0.6,0.7l-2.2,32.8c0,0.4-0.3,0.7-0.7,0.6
		l-2.9-0.2C64.6,518.9,64.3,518.6,64.3,518.2z"/>
</g>
<g>
	
		<linearGradient id="SVGID_2_" gradientUnits="userSpaceOnUse" x1="428.8988" y1="396.0548" x2="429.5076" y2="361.7206" gradientTransform="matrix(1.3617 2.004877e-02 2.370341e-02 1.0038 -465.2208 112.9618)">
		<stop  offset="0" style="stop-color:#808080;stop-opacity:0.25"/>
		<stop  offset="0.54" style="stop-color:#808080;stop-opacity:0.12"/>
		<stop  offset="1" style="stop-color:#808080;stop-opacity:0.1"/>
	</linearGradient>
	<path class="st13" d="M125.1,518.5l2.2-32.8c0-0.4,0.3-0.7,0.7-0.6l2.6,0.2c0.4,0,0.7,0.3,0.6,0.7l-2.2,32.8c0,0.4-0.3,0.7-0.7,0.6
		l-2.6-0.2C125.4,519.2,125.1,518.9,125.1,518.5z"/>
</g>
<path class="st10" d="M46.9,545.4c13.2-4.8,20.6-16.1,18.9-26.7L64.3,536c-0.3,2.6-0.4,5.4,1.3,7.9c2.2,3.1,7.6,5.4,12.4,4.7"/>
<path class="st14" d="M67.8,485.6l1.6,0.1c0.4,0,0.7,0.3,0.6,0.7l-2.2,32.8c0,0.4-0.3,0.7-0.7,0.6l-1.6-0.1c-0.4,0-0.7-0.3-0.6-0.7
	l2.2-32.8C67.2,485.9,67.5,485.6,67.8,485.6z"/>
<path class="st14" d="M128.6,485.9l1.6,0.1c0.4,0,0.7,0.3,0.6,0.7l-2.2,32.8c0,0.4-0.3,0.7-0.7,0.6l-1.6-0.1c-0.4,0-0.7-0.3-0.6-0.7
	l2.2-32.8C127.9,486.2,128.2,485.9,128.6,485.9z"/>
<path class="st11" d="M47,545.7c13.2-4.8,21.1-15.5,19.4-26.1L64.9,537c-0.3,2.6-0.4,5.4,1.3,7.9c2.2,3.1,7.6,5.1,12.4,4.4"/>
<g id="ae53b15a-0666-42c7-9774-0b75586f7fb1">
	
		<linearGradient id="SVGID_3_" gradientUnits="userSpaceOnUse" x1="261.0977" y1="324.9709" x2="261.0977" y2="317.7408" gradientTransform="matrix(1.01 -1.000000e-02 -1.000000e-02 1.14 -160.32 124.62)">
		<stop  offset="0" style="stop-color:#808080;stop-opacity:0.25"/>
		<stop  offset="0.54" style="stop-color:#808080;stop-opacity:0.12"/>
		<stop  offset="1" style="stop-color:#808080;stop-opacity:0.1"/>
	</linearGradient>
	<path class="st15" d="M146.8,492L53,492.8c-2-0.1-3.5-2.1-3.4-4.3l0,0c0.1-2.2,1.9-4,3.9-3.9l93.8-0.8c2,0.1,3.5,2.1,3.4,4.3l0,0
		C150.5,490.5,148.8,492.2,146.8,492z"/>
</g>
<g id="f836891e-0226-4d83-80e6-73012d451be6">
	
		<linearGradient id="SVGID_4_" gradientUnits="userSpaceOnUse" x1="262.1227" y1="335.8092" x2="262.1227" y2="328.5847" gradientTransform="matrix(1.01 -1.000000e-02 -1.000000e-02 1.16 -161.72 115.35)">
		<stop  offset="0" style="stop-color:#808080;stop-opacity:0.25"/>
		<stop  offset="0.54" style="stop-color:#808080;stop-opacity:0.12"/>
		<stop  offset="1" style="stop-color:#808080;stop-opacity:0.1"/>
	</linearGradient>
	<path class="st16" d="M146.5,501.8l-94.2,0.9c-2-0.1-3.5-2.1-3.4-4.4l0,0c0.1-2.3,1.9-4.1,3.9-3.9l94.2-0.9c2,0.1,3.5,2.1,3.4,4.4
		l0,0C150.3,500.2,148.6,502,146.5,501.8z"/>
</g>
<g id="fbf5f82d-c22e-4678-ae3c-b7c3ab00a8a7">
	
		<linearGradient id="SVGID_5_" gradientUnits="userSpaceOnUse" x1="258.2709" y1="346.8755" x2="258.2709" y2="339.6454" gradientTransform="matrix(1.01 -1.000000e-02 -1.000000e-02 1.18 -158.6 105.45)">
		<stop  offset="0" style="stop-color:#808080;stop-opacity:0.25"/>
		<stop  offset="0.54" style="stop-color:#808080;stop-opacity:0.12"/>
		<stop  offset="1" style="stop-color:#808080;stop-opacity:0.1"/>
	</linearGradient>
	<path class="st17" d="M145.4,511.6l-93.8,1.1c-2-0.1-3.5-2.2-3.4-4.5l0,0c0.1-2.4,1.9-4.1,3.9-4l93.8-1.1c2,0.1,3.5,2.2,3.4,4.5
		l0,0C149.2,509.9,147.5,511.7,145.4,511.6z"/>
</g>
<g>
	<path class="st18" d="M146.5,491.9H53.6c-2-0.1-3.5-1.8-3.4-3.9l0,0c0.1-2,1.8-3.5,3.9-3.4h92.8c2,0.1,3.5,1.8,3.4,3.9l0,0
		C150.2,490.5,148.5,492,146.5,491.9z"/>
</g>
<g id="c03422b0-2e71-4490-8192-410f1daf55aa">
	<path class="st18" d="M145.8,501.6H53c-2-0.1-3.5-1.8-3.4-3.9l0,0c0.1-2,1.8-3.5,3.9-3.4h92.8c2,0.1,3.5,1.8,3.4,3.9l0,0
		C149.6,500.1,147.8,501.6,145.8,501.6z"/>
</g>
<g>
	<path class="st18" d="M145.2,511.1H52.4c-2-0.1-3.5-1.8-3.4-3.9l0,0c0.1-2,1.8-3.5,3.9-3.4l92.8-0.1c2,0.1,3.5,1.8,3.4,3.9l0,0
		C148.9,509.8,147.2,511.2,145.2,511.1z"/>
</g>
<g>
	
		<linearGradient id="SVGID_6_" gradientUnits="userSpaceOnUse" x1="261.0449" y1="370.8449" x2="261.0449" y2="361.4832" gradientTransform="matrix(1.02 -1.000000e-02 -1.000000e-02 1.13 -164.02 107.92)">
		<stop  offset="0" style="stop-color:#808080;stop-opacity:0.25"/>
		<stop  offset="0.54" style="stop-color:#808080;stop-opacity:0.12"/>
		<stop  offset="1" style="stop-color:#808080;stop-opacity:0.1"/>
	</linearGradient>
	<path class="st19" d="M144.6,523.8l-92.6,0.8c-2.6-0.2-4.5-2.6-4.3-5.5l0,0c0.2-2.8,2.4-5.1,5-4.9l92.6-0.8
		c2.6,0.2,4.5,2.6,4.3,5.5l0,0C149.4,521.8,147.1,524,144.6,523.8z"/>
</g>
<path id="b140f40c-a8b2-4956-ad2e-452fd03b260d" class="st14" d="M143.4,523.5l-90.8,0.1c-2.5-0.2-4.5-2.4-4.3-4.9l0,0
	c0.2-2.5,2.4-4.5,4.9-4.3l90.8-0.1c2.5,0.2,4.5,2.4,4.3,4.9l0,0C148.1,521.7,145.9,523.6,143.4,523.5z"/>
<linearGradient id="SVGID_7_" gradientUnits="userSpaceOnUse" x1="237.7343" y1="414.3838" x2="237.7343" y2="341.5502" gradientTransform="matrix(1 0 0 1 -155.85 133.21)">
	<stop  offset="0" style="stop-color:#808080;stop-opacity:0.25"/>
	<stop  offset="0.54" style="stop-color:#808080;stop-opacity:0.12"/>
	<stop  offset="1" style="stop-color:#808080;stop-opacity:0.1"/>
</linearGradient>
<path class="st20" d="M102.8,493c-0.8-0.8-3.2-1.4-4.7-0.8c-9.3-4.5-18.3-1.4-22.5,0.3c-0.5-0.3-0.5,0-1.1-0.2
	c0.3-0.5,0.4-1,0.3-1.6c0-0.1,0-0.3-0.1-0.4c3.5-1,5.6-3.7,5.4-7.5c-0.2-4.5-4.1-8.1-8.6-7.9c-4.5,0.2-8.5,2.6-8.4,7.2
	c0.1,3.5,1.8,6.9,5,7.9c-0.1,0.2,0.6,0,0.6,0.3c0,0.3-0.5,1.2-0.4,1.5c-4.1,0.3-5.1,3-5.1,7c0,0.6-0.1,1.2-0.2,1.8l-0.9,4.1
	c-0.3,1.6-0.2,3.2,0.3,4.6c-0.3,0.4-6.4,8.9,3.3,10.4c1.1,0.2,2.2,0.2,3.4,0c1.6,0.4,3.2,1.6,5.2,4.3c4,5.3-0.6,15-1.8,17.2
	c-0.7-0.1-1.4-0.1-2,0.3c-0.6,0.4-1,1.7-0.7,2.4c0.2,0.5,0.6,0.8,1.1,1.2c1.4,0.9,2.8,1.7,4.4,2.2c1.2,0.4,2.6,0.7,3.5-0.2
	c0.8-0.9,0.9-2.6,0-3.5c-0.4-0.3-0.9-0.7-1.4-0.9l3.5-12.3c0.7-3.6,1.4-5.7,0.8-8.1c0.5,0.5,0.1,0.2,0.6,0.9
	c3.9,5.3-2.4,15.4-2.4,15.4l-0.3,0.4c-0.3,0.1-0.1,0-0.4,0.3c-0.5,0.6-1.2,1.9-0.7,2.5c0.3,0.4,0.6,1.1,1.1,1.2
	c1.6,0.5,4.1,0.9,5.7,1c1.2,0.1,2.9-0.5,3.5-1.6c0.5-1.1-0.2-2.4-1.3-3c-0.7-0.3-1.7-0.5-2.8-0.6l2.8-9.7
	c2.2-12.3-4.7-16.2-9.4-17.3c0.3-1,0.5-1.6,0.5-1.6l0,0c0.8-1.4,1.2-2.8,1.1-4.4l-0.5-6.8c-0.1-0.9,0.1-1.2-0.2-2
	c7-3.9,16.3-1.6,17.5-1.3c0.3,0.5,1.1,0.9,1.8,1c0.9,0.2,1.8,0.3,2.6,0.3c0.8,0,1.8-0.2,2.1-0.9C103.6,495.5,103.4,493.5,102.8,493z
	"/>
<ellipse id="af98023a-ba84-4608-aef0-20973dc13f22" transform="matrix(0.9992 -3.908682e-02 3.908682e-02 0.9992 -19.1282 3.1803)" class="st21" cx="71.8" cy="490.8" rx="2.4" ry="2.6"/>
<ellipse id="b4eed79b-84f5-48c3-8b43-45013965af24" transform="matrix(3.327796e-02 -0.9994 0.9994 3.327796e-02 -412.9507 538.4071)" class="st22" cx="71.8" cy="482.7" rx="7.9" ry="7.9"/>
<path class="st22" d="M73.3,493.8c0,0,12.7-6.9,24.4-0.9l-1.2,2.4c0,0-11.4-2.7-18.6,1.8L73.3,493.8z"/>
<path class="st3" d="M71.9,514.1l-1.2,0.1c-0.1,0-0.3,0-0.3,0c-4.9,0-8.4-4.7-7.4-9.4l0.9-4c0.1-0.5,0.2-1.1,0.2-1.7
	c0.1-3.9,1.8-7,5.8-7.2l1.2-0.1c4.3-0.1,7.9,3.2,8.1,7.5l0.3,6.6C79.6,510.3,76.2,513.9,71.9,514.1z"/>
<path class="st23" d="M74.5,511.4c0,0,16,0.2,12.9,17l-4.2,13.9l-3-3.4c0,0,5.9-11.2,2.2-16.3c-3.7-5.1-7.6-3.7-7.6-3.7L74.5,511.4z
	"/>
<path id="ccb820de-2904-4fa6-ba82-eb5ab7edc6f5" class="st23" d="M66.2,510.7c0,0,18.4,0.3,14.9,19.1l-4.8,15.7l-3.5-3.8
	c0,0,6.8-12.6,2.5-18.3c-4.3-5.7-8.7-4.1-8.7-4.1L66.2,510.7z"/>
<path class="st23" d="M78.3,510.3l-15-1.1c0,0-6.4,8.7,3.2,10.1S78.3,510.3,78.3,510.3z"/>
<g>
	
		<linearGradient id="SVGID_8_" gradientUnits="userSpaceOnUse" x1="228.1764" y1="357.0444" x2="228.1764" y2="334.9261" gradientTransform="matrix(1 0 0 1 -155.85 133.21)">
		<stop  offset="0" style="stop-color:#808080;stop-opacity:0.25"/>
		<stop  offset="0.54" style="stop-color:#808080;stop-opacity:0.12"/>
		<stop  offset="1" style="stop-color:#808080;stop-opacity:0.1"/>
	</linearGradient>
	<path class="st24" d="M81.7,468.8c-0.5-1.2-2.3-0.6-2.6,0.4c-0.6,2.5-3.3,3.5-5.5,3.9c-2.6,0.6-5.2,0.9-7.5,2.4
		c-3.4,2.2-4.1,6-3.3,9.6c0.1,1.1,0.3,2.1,0.7,3c0.7,1.4,1.9,2.1,3.2,2c0.6,0.2,1.3,0.1,2-0.3c1.8-0.9,2.9-3.4,3.6-5.1
		c0.7-1.9,1.6-3.9,3-5.3c1.6-1.8,3.5-2.6,5.1-4.3C82.1,473.3,82.7,471,81.7,468.8z"/>
</g>
<path id="d00fa5cc-a731-4142-8ea9-b3c3212fb43d" class="st23" d="M81,469.5c-0.5-1.1-2.2-0.6-2.4,0.4c-0.6,2.3-3.1,3.2-5.1,3.7
	c-2.4,0.5-4.9,0.8-7,2.2c-3.2,2-3.9,5.6-3.1,9c0.1,1,0.3,2,0.7,2.8c0.6,1.2,1.8,2,3,1.9c0.5,0.2,1.2,0.1,1.9-0.3
	c1.6-0.9,2.1-3.1,2.8-4.7c0.7-1.8,1.6-3.6,2.8-5c1.6-1.7,3.9-2.4,5.4-4.1C81.5,473.7,82.1,471.5,81,469.5z"/>
<path class="st22" d="M69.1,494.8c-1.6,3.4-4.8,12-1,16.2c7.2,4.5,0.5,0,0.5,0l7.2,5.1c0.3,0.3,0.8,0.2,1.1-0.1l2.6-2.5
	c0,0-7.9-3.7-7.6-6c0.3-2.3,1.4-11.6,1.4-11.6s-0.1-2.4-2-2.4C70.4,493.4,69.5,494,69.1,494.8z"/>
<path class="st22" d="M102.2,493.6c0.5,0.5,0.9,1.4,0.6,2.1c-0.3,0.7-1.3,0.9-2,0.9c-0.9,0-1.7-0.1-2.5-0.3
	c-0.8-0.2-1.7-0.6-1.8-1.4C95.8,491.8,100.8,492.2,102.2,493.6z"/>
<path class="st14" d="M81.3,538.9c-0.7,0-1.5,0.3-2,0.8c-0.5,0.5-0.6,1.4-0.2,2c0.3,0.4,0.8,0.6,1.3,0.7c1.5,0.5,3,0.8,4.7,0.9
	c1.2,0.1,2.6-0.1,3.1-1.1c0.5-1-0.2-2.4-1.2-2.9C85.7,538.9,82.9,538.9,81.3,538.9z"/>
<path class="st14" d="M73.1,541.4c-0.7-0.2-1.5-0.1-2.2,0.3s-1,1.2-0.7,1.9c0.2,0.5,0.6,0.8,1,1.1c1.3,0.9,2.7,1.6,4.3,2.2
	c1.1,0.4,2.5,0.7,3.3-0.2c0.8-0.9,0.5-2.3-0.4-3.1C77.3,542.5,74.6,541.7,73.1,541.4z"/>
<ellipse transform="matrix(0.9992 -3.908682e-02 3.908682e-02 0.9992 -20.0655 3.4422)" class="st22" cx="78" cy="514.9" rx="2.8" ry="1.6"/>
<linearGradient id="SVGID_9_" gradientUnits="userSpaceOnUse" x1="275.5012" y1="415.1158" x2="275.5012" y2="340.9666" gradientTransform="matrix(1 0 0 1 -155.85 133.21)">
	<stop  offset="0" style="stop-color:#808080;stop-opacity:0.25"/>
	<stop  offset="0.54" style="stop-color:#808080;stop-opacity:0.12"/>
	<stop  offset="1" style="stop-color:#808080;stop-opacity:0.1"/>
</linearGradient>
<path class="st25" d="M138.3,482.9c0.3-4.5-3-8.4-7.5-8.7l0,0c-4.5-0.3-9.3,3.5-9.6,7.9c-0.3,3.6,1.9,7,5.3,8.3
	c-0.3,0.7-0.3,1.4-0.1,2.1c-0.4,0.1-0.4-0.1-0.8,0.1c-4.1-1.8-12.9-4.9-21.9-1c-1.4-0.3-2.8,2-2.7,3.3c0,0.5,0.6,1.8,1.1,2
	c1.2,0.7,2.8-0.4,3.3-1.8c1.9-0.3,10.4-1.9,16.9,1.9c-0.1,0.3-0.3,0.7-0.3,1c-0.1,0.7,0.3,1.4,0,2l1.5,6.2c0.3,2.1,0,3.9,0.7,5.3
	c-0.2,0-0.5,0.2-0.7,0.2c-2.4,0.1-4.3,0.1-6.6,0.9c-2.9,1-5.3,3.1-6.8,5.9c-1.4,2.7-1.2,6.3,0.9,8.5c0.4,0.4,0.9,0.8,1.4,1.2
	c0,0.2,0.1,0.3,0.1,0.5l2.8,12.7c-0.3,0.4-0.6,0.8-0.8,1.2c-0.4,0.6-0.7,1.4-0.5,2.2c0.2,0.7,1.5,2,2.2,2c0.5,0,1-0.3,1.4-0.6
	c1.4-0.9,2.6-2,3.6-3.3c0.3-0.3,0.5-0.7,0.7-1.1l-0.3,0.9c-0.5,0.6-0.9,1.2-1.2,1.7c-0.4,0.6-0.7,1.4-0.5,2.2
	c0.2,0.7,1.5,1.8,2.2,1.8c0.5,0,1-0.3,1.4-0.6c1.4-0.9,2.6-2,3.6-3.3c0.8-0.9,2-3.5,1.4-4.6c-0.4-0.8-1.3-1.1-2.2-1
	c-0.6-1.4-1.4-2.1-2-4.5c3,2.2,6,3.7,9.7,4.3c-2.9-2.7-5.4-5.9-6.4-9.7c-0.4-1.6-0.6-3.6,0.5-4.9c1.1-1.2,2.8-1.3,4.3-1.8
	c2.7-0.9,4.8-3.6,5.1-6.5c0.2-2.1-0.7-3.9-2.6-4c0.9-1.2,1.5-2.6,1.6-4.1l0.6-8c0.3-3.5-1.9-6.6-5.2-7.7c0.2-0.5,0.2-1.2,0.1-1.8
	C135.4,489.5,138.1,486.5,138.3,482.9z M121,538.7c-0.7-0.2-1.4-0.1-2.1,0.1l0,0c-0.7-1.8-2.1-5.3-2.5-8.9c0.5,0.2,0.9,0.3,1.4,0.5
	c0.4,0.1,0.7,0.3,1.2,0.5L121,538.7z"/>
<path id="ca7c05dc-f404-4e8d-be4c-1e094d83bdb3" class="st22" d="M128,494.2c0,0-12.4-7.4-24.4-1.9l1.2,2.4c0,0,11.5-2.2,18.6,2.5
	L128,494.2z"/>
<path class="st22" d="M126.1,511.7c0,0-16-0.4-13.6,16.5l3.7,14.2l3.2-3.2c0,0-5.5-11.4-1.6-16.4c3.9-4.9,7.7-3.4,7.7-3.4
	L126.1,511.7z"/>
<path class="st22" d="M101.5,495.3c0,0.5,0.3,1.1,0.7,1.4c1.8,0.9,3.7-2.4,2.8-3.9C103.5,490.6,101.4,493.7,101.5,495.3z"/>
<path class="st26" d="M115.1,542.3c-0.4,0.6-0.7,1.4-0.5,2.1c0.1,0.7,0.8,1.4,1.6,1.4c0.5,0,0.9-0.3,1.4-0.6c1.3-0.9,2.5-2,3.5-3.2
	c0.7-0.9,1.5-2.1,0.9-3.2c-0.5-1.1-2-1.2-3-0.7C117.6,538.8,115.9,541,115.1,542.3z"/>
<path id="a69cafd2-284f-43ab-88bc-2406ede4d0f3" class="st22" d="M134.2,510.4c0,0-18.4-0.5-15.6,18.6l4.2,15.9l3.7-3.7
	c0,0-6.3-12.8-1.8-18.3c4.5-5.6,8.9-3.8,8.9-3.8L134.2,510.4z"/>
<path class="st26" d="M128.2,514.4L128.2,514.4c4,0.3,7.4-2.7,7.8-6.7l0.6-7.7c0.3-4-2.7-7.4-6.7-7.8l0,0c-3.5-0.3-6.8,2-7.6,5.5
	c-0.1,0.7-0.1,1.4,0,2l1.5,6.6C123.4,510.3,124.2,514.2,128.2,514.4z"/>
<ellipse transform="matrix(7.724204e-02 -0.997 0.997 7.724204e-02 -370.8913 582.5296)" class="st21" cx="129.3" cy="491.6" rx="2.6" ry="2.4"/>
<path id="a5a77078-24df-4f4d-8a14-08c4c7dce91f" class="st3" d="M125.7,511.9c-3,0-6,0.1-8.7,1.1c-2.8,0.9-5.4,2.8-6.8,5.3
	c-1.4,2.6-1.2,6.1,0.9,8.3c1.8,1.8,4.4,2.4,6.8,3.4c5.3,2.3,9.5,7.3,15.2,8.3c-2.8-2.7-4.9-6.1-5.8-9.9c-0.4-1.6-0.6-3.5,0.5-4.7
	c1-1.2,2.7-1.3,4.2-1.8c2.6-0.9,4.7-3.5,4.9-6.3c0.2-2.2-0.9-4.1-3.2-3.9C131.1,512.1,128.4,511.9,125.7,511.9z"/>
<path class="st22" d="M133.7,496.2c0,0,3.9,12.5-0.6,14.6l-7,5.4l-2.5-3c0,0,7.4-4.1,8.2-6.8c0.8-2.8-1.9-8.9-1.9-8.9
	S131.9,494.4,133.7,496.2z"/>
<ellipse transform="matrix(7.974643e-02 -0.9968 0.9968 7.974643e-02 -398.9698 597.076)" class="st22" cx="123.9" cy="514.6" rx="1.6" ry="2.8"/>
<path class="st26" d="M120.9,543.9c-0.4,0.6-0.7,1.4-0.5,2.1c0.1,0.7,0.8,1.4,1.6,1.4c0.5,0,0.9-0.3,1.4-0.6c1.3-0.9,2.5-2,3.5-3.2
	c0.7-0.9,1.5-2.1,0.9-3.2c-0.5-1.1-2-1.2-3-0.7C123.4,540.4,121.8,542.6,120.9,543.9z"/>
<circle class="st22" cx="129.9" cy="483.1" r="7.9"/>
<g>
	
		<linearGradient id="SVGID_10_" gradientUnits="userSpaceOnUse" x1="295.0333" y1="364.3819" x2="295.0333" y2="338.2582" gradientTransform="matrix(1 0 0 1 -155.85 133.21)">
		<stop  offset="0" style="stop-color:#808080;stop-opacity:0.25"/>
		<stop  offset="0.54" style="stop-color:#808080;stop-opacity:0.12"/>
		<stop  offset="1" style="stop-color:#808080;stop-opacity:0.1"/>
	</linearGradient>
	<path class="st27" d="M153.2,487.2c-0.9-0.9-2.1-1.7-3-2.7c-0.9-1-1.6-2.2-2.2-3.5c-1-2.5-1.8-5.1-3.7-7.2
		c-2.3-2.5-5.4-2.7-8.6-2.2c-2.8,0.4-5.6,0.9-8.4,1.7c-0.1,0-0.1-0.1-0.2-0.1c-1.6-0.6-3.4,0.3-3.9,1.8c-0.1,0.4-0.2,0.9-0.1,1.4
		c-0.2,0.4-0.2,0.9,0.2,1.4c2,2.2,3.7,4.2,4.4,7.2c0.7,2.8,1.6,5,3.9,6.7c2.4,1.7,5.2,3,7.9,4.1c2.9,1.2,6,2,9.2,1.8
		c2.3-0.2,4.9-1,6.1-3.2C156.3,491.9,155.1,489,153.2,487.2z"/>
</g>
<path id="f5bb29f6-add4-4074-96f2-ee2c4929409b" class="st28" d="M152.7,487.1c-0.9-0.9-2-1.7-3-2.6c-0.9-0.9-1.6-2.1-2.1-3.3
	c-1-2.4-1.7-5-3.5-7c-2.2-2.4-5.2-2.6-8.3-2.2c-2.7,0.4-5.5,0.9-8.1,1.6c-0.1,0-0.1-0.1-0.2-0.1c-1.5-0.5-3.2,0.3-3.8,1.8
	c-0.1,0.4-0.2,0.9-0.1,1.3c-0.2,0.4-0.2,0.9,0.2,1.4c2,2.1,3.6,4.1,4.3,7c0.6,2.6,1.5,4.8,3.9,6.5c2.4,1.7,5.1,2.9,7.7,4
	c2.8,1.2,5.9,1.9,8.9,1.7c2.2-0.2,4.7-1,6-3.1C155.8,491.7,154.6,488.9,152.7,487.1z"/>
<linearGradient id="SVGID_11_" gradientUnits="userSpaceOnUse" x1="425.9843" y1="84.4196" x2="425.9843" y2="28.1891" gradientTransform="matrix(1 0 0 1 -133.4507 170.5804)">
	<stop  offset="0" style="stop-color:#808080;stop-opacity:0.25"/>
	<stop  offset="0.5351" style="stop-color:#808080;stop-opacity:0.12"/>
	<stop  offset="1" style="stop-color:#808080;stop-opacity:0.1"/>
</linearGradient>
<path class="st29" d="M298.2,231.6c-2.5-5-0.5-9.3,2.9-12.3c4.7-2.2,9.4-1.2,12.8,3.2c2.3-1.3,5.1-1.6,7.4-1
	c1.8-6.8,0.1-14.9-5.9-19.3c-7.9-5.7-18.8-4-24.5,3.8c-7.9-5.7-18.8-4-24.5,3.8c-5.7,7.9-4,18.8,3.8,24.5l28.4,20.7l7.5-10.4
	L298.2,231.6z"/>
<linearGradient id="SVGID_12_" gradientUnits="userSpaceOnUse" x1="445.9042" y1="76.6135" x2="445.9042" y2="48.2647" gradientTransform="matrix(1 0 0 1 -133.4507 170.5804)">
	<stop  offset="0" style="stop-color:#808080;stop-opacity:0.25"/>
	<stop  offset="0.5351" style="stop-color:#808080;stop-opacity:0.12"/>
	<stop  offset="1" style="stop-color:#808080;stop-opacity:0.1"/>
</linearGradient>
<path class="st30" d="M314,223.2c-2.5-4.2-7.8-5.6-12-3.1c-4.2,2.5-5.6,7.8-3.1,12l0,0l8.9,15.1l15.1-8.9c4.2-2.5,5.6-7.8,3.1-12
	S318.2,220.7,314,223.2z"/>
<path class="st31" d="M314,223.5c-2.4-4-7.4-5.3-11.5-3c-4,2.4-5.3,7.4-3,11.4l8.4,14.5l14.5-8.4c4-2.4,5.3-7.4,3-11.4
	C323.1,222.5,318,221.2,314,223.5z"/>
<path class="st32" d="M322.3,238c4-2.4,5.3-7.4,3-11.4c-2.3-4-7.4-5.3-11.4-3l8.3,14.5L322.3,238z"/>
<path class="st3" d="M320.8,221.1c-2.3-0.5-4.8-0.2-6.8,1c-2.6-4.5-8.4-6-12.8-3.4c-4.5,2.6-6,8.3-3.4,12.8l7.4,12.7l-6.9,9.5
	l-14.1-10.3l1.2-0.7c5.1-3,6.8-9.5,3.8-14.6c-2.7-4.6-8.4-6.5-13.4-4.5c-0.4,0.2-0.8,0.4-1.2,0.6c-2.1-3.6-6.1-5.7-10.2-5.2
	c0.1-0.8,0.2-1.7,0.4-2.5c0-0.1,0.1-0.2,0.1-0.3c0.1-0.4,0.2-0.7,0.3-1.1c0-0.1,0-0.1,0.1-0.1c0.1-0.2,0.1-0.3,0.2-0.5
	c0.1-0.2,0.2-0.4,0.2-0.5c0.1-0.1,0.1-0.2,0.1-0.3s0.1-0.2,0.1-0.3l0,0c0.1-0.1,0.1-0.2,0.1-0.3c0,0,0,0,0-0.1
	c0.1-0.1,0.1-0.2,0.1-0.2c0.1-0.1,0.1-0.2,0.1-0.3c0.1-0.2,0.2-0.4,0.3-0.6c0.1-0.1,0.1-0.2,0.1-0.2c0.1-0.1,0.1-0.2,0.2-0.3
	c0-0.1,0.1-0.1,0.1-0.1c0.1-0.2,0.3-0.4,0.4-0.6c0.1-0.1,0.1-0.1,0.1-0.2c0.1-0.1,0.1-0.1,0.2-0.2c0.1-0.1,0.1-0.2,0.2-0.2
	c5.4-7.5,16-9.1,23.5-3.7c5.4-7.5,16-9.1,23.5-3.7C320.1,207.3,322.6,214.4,320.8,221.1z"/>
<path class="st31" d="M273.6,225.9c-2.6-4.5-8.4-6-12.9-3.4c-4.5,2.6-6,8.4-3.4,12.9l9.5,16.3l16.3-9.5c4.5-2.6,6-8.4,3.4-12.9
	C283.9,224.8,278.1,223.3,273.6,225.9L273.6,225.9z"/>
<path class="st32" d="M291,206.9l-15.2,16.9c-0.4,0.2-0.8,0.4-1.2,0.6c-2.1-3.6-6.1-5.7-10.2-5.2c0.1-0.8,0.2-1.7,0.4-2.5
	c0-0.1,0.1-0.2,0.1-0.3c0.1-0.4,0.2-0.7,0.3-1.1c0-0.1,0-0.1,0.1-0.1c0.1-0.2,0.1-0.3,0.2-0.5s0.2-0.4,0.2-0.5
	c0.1-0.1,0.1-0.2,0.1-0.3c0.1-0.1,0.1-0.2,0.1-0.3l0,0c0.1-0.1,0.1-0.2,0.1-0.3c0,0,0,0,0-0.1c0.1-0.1,0.1-0.2,0.1-0.2
	c0.1-0.1,0.1-0.2,0.1-0.3c0.1-0.2,0.2-0.4,0.3-0.6c0.1-0.1,0.1-0.2,0.1-0.2c0.1-0.1,0.1-0.2,0.2-0.3c0-0.1,0.1-0.1,0.1-0.1
	c0.1-0.2,0.3-0.4,0.4-0.6c0.1-0.1,0.1-0.1,0.1-0.2c0.1-0.1,0.1-0.1,0.2-0.2c0.1-0.1,0.1-0.2,0.2-0.2
	C273,203.1,283.5,201.4,291,206.9C291,206.9,291,206.9,291,206.9L291,206.9z"/>
</svg>
