<?xml version="1.0" encoding="utf-8"?>
<!-- Generator: Adobe Illustrator 23.0.3, SVG Export Plug-In . SVG Version: 6.00 Build 0)  -->
<svg version="1.1" id="Layer_1" xmlns="http://www.w3.org/2000/svg" xmlns:xlink="http://www.w3.org/1999/xlink" x="0px" y="0px"
	 viewBox="0 0 400 600" style="enable-background:new 0 0 400 600;" xml:space="preserve">
<style type="text/css">
	.st0{fill:#F2F2F2;}
	.st1{fill:#2F2E41;}
	.st2{fill:none;stroke:#3F3D56;stroke-miterlimit:10;}
	.st3{fill:#F50057;}
	.st4{fill:#FBBEBE;}
	.st5{opacity:0.1;enable-background:new    ;}
	.st6{fill:#3F3D56;}
	.st7{fill:#A0616A;}
	.st8{fill:#FF6584;}
	.st9{opacity:0.3;}
	.st10{fill:none;stroke:#607D8B;stroke-width:7.29;stroke-linecap:round;stroke-miterlimit:10;}
	.st11{fill:none;stroke:#37474F;stroke-width:7.29;stroke-linecap:round;stroke-miterlimit:10;}
	.st12{fill:url(#SVGID_1_);}
	.st13{fill:url(#SVGID_2_);}
	.st14{fill:#37474F;}
	.st15{fill:url(#SVGID_3_);}
	.st16{fill:url(#SVGID_4_);}
	.st17{fill:url(#SVGID_5_);}
	.st18{fill:#E0E0E0;}
	.st19{fill:url(#SVGID_6_);}
	.st20{fill:url(#SVGID_7_);}
	.st21{fill:#F5B89C;}
	.st22{fill:#F8C198;}
	.st23{fill:#263238;}
	.st24{fill:url(#SVGID_8_);}
	.st25{fill:url(#SVGID_9_);}
	.st26{fill:#FFFFFF;}
	.st27{fill:url(#SVGID_10_);}
	.st28{fill:#FF6347;}
	.st29{fill:url(#SVGID_11_);}
	.st30{fill:url(#SVGID_12_);}
	.st31{fill:#E53935;}
	.st32{opacity:0.2;enable-background:new    ;}
</style>
<path class="st0" d="M207,94.6c-0.4,21.2-12.7,40.4-31.9,49.5c-7.4,3.5-15.5,5.3-23.6,5.3c-1.2,0-2.3,0-3.5-0.1
	c-25.3-1.6-50.6-1.6-75.9,0c-1.2,0.1-2.3,0.1-3.5,0.1c-9.5,0-18.8-2.4-27.1-7.1c-17.3-9.7-28.1-27.9-28.5-47.7
	c-0.6-31.3,24.2-56.9,55.3-57.1c16.6-0.1,31.5,7.2,41.7,18.7c10.2-11.5,25.1-18.7,41.7-18.7C182.8,37.7,207.6,63.3,207,94.6z"/>
<path class="st1" d="M175.1,144.1c-7.4,3.5-15.5,5.3-23.6,5.3c-1.2,0-2.3,0-3.5-0.1c-25.3-1.6-50.6-1.6-75.9,0
	c-1.2,0.1-2.3,0.1-3.5,0.1c-9.5,0-18.8-2.4-27.1-7.1c12.5-5.4,36.9-9.1,65-9.1C137.6,133.3,164.1,137.8,175.1,144.1z"/>
<path class="st2" d="M136.6,66.6c-1.3-1.1-3.1-1.4-4.7-0.7c-2.3,1-3.3,3.8-3.2,6.4c0.2,2.5,1.2,4.9,1.9,7.3c0.9,3.3,1.2,6.8,0.1,10
	c-1.1,3.2-3.6,6.1-6.9,7c-3,0.8-6.3,0-9.3-0.8"/>
<path class="st3" d="M142.1,61.5c0.1-1.5-1-2.7-2.5-2.8c-1.5-0.1-2.7,1-2.8,2.5c0,0,0,0,0,0l-0.3,5.3l5.3,0.3c1.5,0.1,2.7-1,2.8-2.5
	C144.7,62.9,143.5,61.6,142.1,61.5L142.1,61.5z"/>
<path class="st3" d="M136.4,75.3c0.1-1.5-1-2.7-2.5-2.8c-1.5-0.1-2.7,1-2.8,2.5l-0.3,5.3l5.3,0.3c1.5,0.1,2.7-1,2.8-2.5
	C139,76.6,137.9,75.4,136.4,75.3L136.4,75.3z"/>
<path class="st3" d="M128.8,60.6c-1.1-0.9-2.8-0.8-3.7,0.3c-0.9,1.1-0.8,2.8,0.3,3.7c0,0,0,0,0,0l4.1,3.4l3.4-4.1
	c0.9-1.1,0.8-2.8-0.3-3.7C131.4,59.3,129.7,59.5,128.8,60.6L128.8,60.6z"/>
<path class="st2" d="M160.4,64.2c-0.9-1.4-2.6-2.2-4.3-2c-2.5,0.4-4.2,2.8-4.7,5.3c-0.5,2.5-0.1,5-0.1,7.6c0,3.4-0.7,6.9-2.6,9.7
	c-1.9,2.8-5.1,4.9-8.5,4.9c-3.1,0-6-1.7-8.7-3.3"/>
<path class="st3" d="M167,60.8c0.5-1.4-0.3-2.9-1.7-3.4c-1.4-0.5-2.9,0.3-3.4,1.7l-1.7,5l5,1.7c1.4,0.5,2.9-0.3,3.4-1.7
	C169.1,62.8,168.4,61.3,167,60.8L167,60.8z"/>
<path class="st3" d="M157.9,72.5c0.5-1.4-0.3-2.9-1.7-3.4c-1.4-0.5-2.9,0.3-3.4,1.7l-1.7,5l5,1.7c1.4,0.5,2.9-0.3,3.4-1.7
	C160,74.5,159.3,73,157.9,72.5z"/>
<path class="st3" d="M154.5,56.3c-0.8-1.2-2.5-1.5-3.7-0.7c-1.2,0.8-1.5,2.5-0.7,3.7c0,0,0,0,0,0l3,4.4l4.4-3
	c1.2-0.8,1.5-2.5,0.7-3.7C157.3,55.8,155.7,55.5,154.5,56.3L154.5,56.3z"/>
<path class="st2" d="M149,28.9c1.7-0.3,3.4,0.4,4.3,1.8c1.4,2.1,0.8,5-0.7,7.1c-1.5,2.1-3.6,3.5-5.5,5.2c-2.5,2.3-4.6,5.2-5.3,8.5
	s-0.1,7,2.2,9.5c2.1,2.3,5.3,3.3,8.3,4.2"/>
<path class="st3" d="M147,21.7c0.7-1.3,2.3-1.8,3.6-1.1c1.3,0.7,1.8,2.3,1.1,3.6c0,0,0,0,0,0l-2.5,4.7l-4.7-2.5
	c-1.3-0.7-1.8-2.3-1.1-3.6C144.1,21.5,145.7,21,147,21.7z"/>
<path class="st3" d="M144.6,36.4c0.7-1.3,2.3-1.8,3.6-1.1c1.3,0.7,1.8,2.3,1.1,3.6c0,0,0,0,0,0l-2.5,4.7l-4.7-2.5
	c-1.3-0.7-1.8-2.3-1.1-3.6C141.7,36.2,143.3,35.7,144.6,36.4z"/>
<path class="st3" d="M158.8,27.9c1.4-0.2,2.8,0.8,3,2.2c0.2,1.4-0.8,2.8-2.2,3c0,0,0,0,0,0l-5.2,0.8l-0.8-5.2
	c-0.2-1.4,0.8-2.8,2.2-3C157.2,25.4,158.6,26.5,158.8,27.9L158.8,27.9z"/>
<rect x="98.9" y="84.9" class="st4" width="4.9" height="2.5"/>
<rect x="98.9" y="84.9" class="st5" width="4.9" height="2.5"/>
<circle class="st1" cx="89.9" cy="42.2" r="6.2"/>
<path class="st4" d="M104.1,83.6c0,0-1.9-0.6-2.3-0.4c-0.4,0.2,1.4,1.8,1.4,1.8L104.1,83.6z"/>
<path class="st5" d="M104.1,83.6c0,0-1.9-0.6-2.3-0.4c-0.4,0.2,1.4,1.8,1.4,1.8L104.1,83.6z"/>
<path class="st6" d="M90.6,133.5c0,0,4.5,0.6,5.3,0.6c0.8,0,2.9,0.8,1.8,1.8c-1.2,1-8.6,2.3-9.6,1.8c-1-0.6-2.3-2.3-1.4-2.5
	C87.7,134.9,90.6,133.5,90.6,133.5z"/>
<polygon class="st4" points="82.6,140.8 81,143.5 83,144.5 86.7,145.2 88.7,142.7 87.9,139.8 "/>
<path class="st1" d="M92.9,120.7c0,0-2.5,10.7-2.1,11.3c0.4,0.6,1.2,2.1,0.4,2.7c-0.8,0.6-3.9,0.8-3.9,0.8l1-5.7l1.4-6.8L92.9,120.7
	z"/>
<path class="st1" d="M85.9,98.1l2.5,11.5c0,0,0.4,5.7-0.6,7.8c-1,2.1-6.2,24.8-6.2,24.8s5.5,0.2,6.6-0.4c1.2-0.6,3.1-14.1,3.1-14.1
	s6.4-12.8,6.2-15.4c-0.2-2.5,1-15.4-0.7-16.4C95.3,94.9,85.9,98.1,85.9,98.1z"/>
<path class="st6" d="M86.3,144.3l2.3-2.3c0,0,6.2,3.1,7.2,3.3c1,0.2,3.1,1.8,1,2.3c-2.1,0.6-10.1,0.2-12.1,0
	c-1.9-0.2-5.8-0.4-5.3-1.6s1.6-5.3,1.6-5.3s0.5-0.7,0.9,0.2c0.3,1,0.5,2.3,1.3,2.3C84,143.3,86.3,144.3,86.3,144.3z"/>
<path class="st7" d="M116.3,94.7l5.5-0.4l3.7,1.9l-0.4,2.3l-1.6,0.4c0,0-4.3-1.8-6.8-1.2S116.3,94.7,116.3,94.7z"/>
<path class="st1" d="M122.8,95.5c0,0,2.1,2.3,0,3.2c0,0,0.4,0.7,1.9,0.9s3.7,1.6,4.3,1.6s3.1-0.4,1.6-2.5c-1.6-2.1-7.8-6.8-7.8-6.8
	s-1.8-0.8-2.3,0.8c-0.6,1.6-0.9,1.9-0.9,1.9S122.4,95.1,122.8,95.5z"/>
<path class="st7" d="M106.4,114.2c0,0,1.8,6.6,1.8,7s2.3-1.6,2.3-1.6l0.4-3.5c0,0-1.6-1.6-1.6-2.5
	C109.3,112.7,106.4,114.2,106.4,114.2z"/>
<path class="st1" d="M109.9,118.9c0,0-1.4,1.8-2.3,1.2l0.6,6.6c0,0,0.4,3.3,1.8,1.9c1.4-1.4,2.7-8.2,2.7-8.2s1.9-4.1,0.4-4.7
	c-0.9-0.3-1.8-0.6-2.7-0.8C110.3,115,110.3,119.1,109.9,118.9z"/>
<path class="st8" d="M97.2,96.7l5.8,12.1c0,0,1.9,6.8,2.7,7c0.8,0.2,3.7-1.2,4.1-1.4c0.4-0.2-3.3-7.8-3.3-9.2s-4.5-9-4.5-9
	L97.2,96.7z"/>
<path class="st5" d="M97.2,96.7l5.8,12.1c0,0,1.9,6.8,2.7,7c0.8,0.2,3.7-1.2,4.1-1.4c0.4-0.2-3.3-7.8-3.3-9.2s-4.5-9-4.5-9
	L97.2,96.7z"/>
<path class="st8" d="M101.3,75.6c0,0,0.2,4.1-0.6,6.8c-0.8,2.7,1,11.7,1,11.7s2.9,0.2,3.7,0c0.8-0.2,11.3-0.4,11.9,0
	c0.6,0.4,0.4,7.2,0,7c-0.4-0.2-10.5-2.3-15.4-1.6c-4.9,0.8-5.5-0.4-5.7-0.8c-0.2-0.4-3.5-10.9-3.5-10.9l-1.2-5.1L90,77.4l1-5.3
	L101.3,75.6z"/>
<circle class="st7" cx="89.5" cy="44.9" r="5.3"/>
<circle class="st4" cx="79.7" cy="57.3" r="5.3"/>
<path class="st7" d="M91,48.5c0,0,3.5,2.3,2.9,3.7c-0.6,1.4-2.1,2.9-2.1,2.9l-0.2,2.1l2.9,1l7.4,0.4c0,0-0.4-6.6-2.7-8.4
	c-2.3-1.8-5.1-2.9-5.5-4.5S91,48.5,91,48.5z"/>
<path class="st7" d="M100.7,53.3c-1.3-2.4-4.9-2.1-5.6,0.5c-0.2,0.6-0.1,1.3,0.2,1.9c1.4,2.3,2.3,4.1,2.3,4.1l4.3-0.4
	C101.9,59.5,102,55.8,100.7,53.3z"/>
<path class="st1" d="M92.4,54.5c0,0-5.1,3.2-4.7,5.4s0.8,5.8,0.8,7.2s1.4,5.7,3.3,6.4c1.9,0.8,1.9-1.4,4.7,1.2s5.7,3.7,5.5,4.1
	c-0.2,0.4,0.8-3.5-0.8-5.1s-3.3-6-1.8-8c1.6-1.9,2.9-7,2.9-7s-0.2-1.2-1.4-1c-1.2,0.2-8.4-0.6-8.8-1.6C91.9,55.6,92,54.9,92.4,54.5z
	"/>
<path class="st1" d="M91.7,56.1c0,0,5.4-5.8,6.1-5.6c0.8,0.2,3,2.5,3,2.5l-3-2.1l-6.1,5.6V56.1z"/>
<path class="st4" d="M84.2,58.3c0,0,0.7,7.9,1.7,8.6c1,0.7-7.6,0.5-7.6,0.5s1.9-6,0.8-6.8C77.9,59.8,84.2,58.3,84.2,58.3z"/>
<path class="st6" d="M86.1,64.7c0,0-6.6-1.8-7.4-0.8c-0.8,1-2.3,9.4-2.3,9.4s0.8,5.7,2.1,9.7c1.4,4.1,3.1,18.5,4.5,18.5
	s3.7-2.1,4.3-2.1s4.1-1.8,6.2-1.4c1.2,0.2,2.5,0.2,3.7-0.2c0,0-1-8.2-3.3-10.3c-2.3-2.1-3.5-17-3.5-17S87.1,64.3,86.1,64.7z"/>
<path class="st4" d="M96.3,83.2c0,0,2.2,3,4.4,3.2l1.2,0c0,0-1.9,5.1-1,5.3c1,0.2,3.9-3.7,2.9-5.8c-1-2.1-3.9-5.5-3.9-5.5L96.3,83.2
	z"/>
<path class="st4" d="M104.1,83.2c0,0-3.3,3.1-1.9,4.5c1.4,1.4,3.1,0,3.1,0S106.6,85.8,104.1,83.2z"/>
<path class="st5" d="M104.1,83.2c0,0-3.3,3.1-1.9,4.5c1.4,1.4,3.1,0,3.1,0S106.6,85.8,104.1,83.2z"/>
<circle class="st1" cx="91.3" cy="41" r="6.2"/>
<circle class="st1" cx="94.2" cy="35.8" r="3.7"/>
<path class="st1" d="M91.3,34.6c0-1.9,1.4-3.5,3.3-3.7c-0.1,0-0.3,0-0.4,0c-2,0-3.7,1.7-3.7,3.7c0,2,1.7,3.7,3.7,3.7
	c0.1,0,0.3,0,0.4,0C92.7,38.1,91.3,36.5,91.3,34.6z"/>
<ellipse class="st1" cx="89.2" cy="43.6" rx="5" ry="3.7"/>
<path class="st1" d="M79.9,55.4c-0.1,0.4-0.2,0.7-0.1,1.1c0.1,0.3,0.3,0.5,0.5,0.8c0.3,0.5,0.1,1.2-0.4,1.4c-0.3-0.2-0.6-0.2-1-0.2
	c-0.3,0.1-0.5,0.4-0.5,0.7c0.1,0.5,0.6,0.7,0.9,1.1c0.2,0.3,0.3,0.6,0.3,1c0.1,0.5,0.4,1,0.4,1.6c0,0.5-0.2,1.1-0.8,1.2
	c-0.4,0.1-0.9-0.2-1.2-0.6c-0.3-0.4-0.5-0.8-0.8-1.2c-0.9-1.2-2.6-1.8-3.7-2.9c-1.4-1.4-1.7-3.6-1.2-5.3c0.2-0.7,0.6-1.4,1.2-1.8
	c0.6-0.5,1.5-0.6,2.1-1c0.7-0.4,1.3-1,2-1.5s1.5-0.9,2.4-0.8c0.6,0.1,1.2,0.4,1.8,0.6c0.7,0.2,1.4,0.1,2-0.2l-0.6,0.6
	c0.4,0.2,0.9,0.2,1.3,0.2c-0.2,0.4-0.5,0.7-0.9,0.8c0.3,0.2,0.7,0.4,1.1,0.3c-0.4,0.5-0.9,1-1.5,1.2c-0.3,0.1-0.7,0.1-1,0.1
	c-0.7,0.1-1.3,0.5-1.9,0.9c-0.3,0.2-0.7,0.4-0.7,0.8C79.7,54.7,80,55,79.9,55.4z"/>
<path class="st6" d="M82.2,66.7c0,0-1.8,6.4,1.4,7.8s9.6,6.4,10.7,8.2c1.2,1.8,2.5,2.3,2.5,2.3s4.7-3.9,3.7-5.1
	c-1-1.2-4.9-4.7-4.9-4.7S85.7,64.5,82.2,66.7z"/>
<path class="st7" d="M97.6,66.9c0,0-7.2-2-9.3-2.4c-2.2-0.3-7.8,0.2-6.7,1.2c1.2,1,8,1.8,8,1.8l8.2,3.1L97.6,66.9z"/>
<path class="st1" d="M97.6,58.9c0,0,0.6,3.9,0.6,5.3c0,1.4,1,2.5,0.2,2.5c-0.8,0-1.4-0.8-1.4,0c0,0.8-1.2,5.5,0,5.5
	c1.2,0,4.1-0.8,4.7-0.8c0.6,0,2.5-0.4,2.3-2.5c-0.2-2.1-1-4.5-0.6-4.9c0.4-0.4,0.6-2.3,0.2-2.7c-0.4-0.4-1.4-2.9-1.4-2.9L97.6,58.9z
	"/>
<g class="st9">
	<path class="st3" d="M138.8,98.6c-0.7-0.1-1.4,0.4-1.5,1.2s0.4,1.4,1.2,1.5c0,0,0,0,0,0l2.7,0.3l0.3-2.7c0.1-0.7-0.4-1.4-1.2-1.5
		C139.6,97.3,138.9,97.8,138.8,98.6C138.8,98.6,138.8,98.6,138.8,98.6z"/>
</g>
<g class="st9">
	<path class="st3" d="M171.5,85.5c-0.7-0.4-1.5-0.1-1.9,0.5c-0.4,0.7-0.1,1.5,0.5,1.9l2.4,1.3l1.3-2.4c0.4-0.7,0.1-1.5-0.5-1.9
		C172.7,84.6,171.9,84.9,171.5,85.5C171.5,85.5,171.5,85.5,171.5,85.5L171.5,85.5z"/>
</g>
<g class="st9">
	<path class="st3" d="M157,104c-0.7-0.1-1.4,0.4-1.5,1.2c-0.1,0.7,0.4,1.4,1.2,1.5c0,0,0,0,0,0l2.7,0.3l0.3-2.7
		c0.1-0.7-0.4-1.4-1.2-1.5S157.1,103.3,157,104C157,104,157,104,157,104z"/>
</g>
<path class="st10" d="M166.1,575c-19.5-7.1-30.5-23.3-28-38.9l2.3,25.6c0.4,3.9,0.6,8-1.9,11.7c-3.2,4.6-11.2,8.4-18.3,7.4"/>
<path id="ffeed91e-fa36-4069-908b-8d6c36340b34" class="st11" d="M166,576c-19.5-7.1-31.2-22.9-28.7-38.5l2.3,25.6
	c0.4,3.9,0.6,8-1.9,11.7c-3.2,4.6-11.2,7.5-18.3,6.5"/>
<g>
	
		<linearGradient id="SVGID_1_" gradientUnits="userSpaceOnUse" x1="309.1413" y1="-59.3701" x2="310.2048" y2="-8.6602" gradientTransform="matrix(1.4614 2.665874e-02 -3.368154e-02 -1.0044 -403.6056 468.1114)">
		<stop  offset="0" style="stop-color:#808080;stop-opacity:0.25"/>
		<stop  offset="0.54" style="stop-color:#808080;stop-opacity:0.12"/>
		<stop  offset="1" style="stop-color:#808080;stop-opacity:0.1"/>
	</linearGradient>
	<path class="st12" d="M45.3,534.7l3.2-48.5c0-0.6,0.5-1,1.1-0.9l4.3,0.3c0.6,0,1,0.5,0.9,1.1l-3.2,48.5c0,0.6-0.5,1-1.1,0.9
		l-4.3-0.3C45.7,535.7,45.3,535.3,45.3,534.7z"/>
</g>
<g>
	
		<linearGradient id="SVGID_2_" gradientUnits="userSpaceOnUse" x1="434.8511" y1="-62.3185" x2="435.7502" y2="-11.6068" gradientTransform="matrix(1.3617 2.004877e-02 -2.370341e-02 -1.0038 -453.9617 464.7668)">
		<stop  offset="0" style="stop-color:#808080;stop-opacity:0.25"/>
		<stop  offset="0.54" style="stop-color:#808080;stop-opacity:0.12"/>
		<stop  offset="1" style="stop-color:#808080;stop-opacity:0.1"/>
	</linearGradient>
	<path class="st13" d="M135.1,535.1l3.2-48.5c0-0.6,0.5-1,1.1-0.9l3.9,0.3c0.6,0,1,0.5,0.9,1.1l-3.2,48.5c0,0.6-0.5,1-1.1,0.9
		l-3.9-0.3C135.5,536.2,135,535.7,135.1,535.1z"/>
</g>
<path class="st10" d="M19.6,574.9c19.5-7.1,30.4-23.8,27.9-39.5l-2.3,25.6c-0.4,3.9-0.6,8,1.9,11.7c3.2,4.6,11.2,8,18.3,7"/>
<path class="st14" d="M50.5,486.6l2.3,0.2c0.6,0,1,0.5,0.9,1.1l-3.2,48.5c0,0.6-0.5,1-1.1,0.9l-2.3-0.2c-0.6,0-1-0.5-0.9-1.1
	l3.2-48.5C49.5,487,50,486.6,50.5,486.6z"/>
<path class="st14" d="M140.3,487l2.3,0.2c0.6,0,1,0.5,0.9,1.1l-3.2,48.5c0,0.6-0.5,1-1.1,0.9l-2.3-0.2c-0.6,0-1-0.5-0.9-1.1
	l3.2-48.5C139.2,487.4,139.7,487,140.3,487z"/>
<path class="st11" d="M19.7,575.3c19.5-7.1,31.2-22.9,28.7-38.5l-2.3,25.7c-0.4,3.9-0.6,8,1.9,11.7c3.2,4.6,11.2,7.5,18.3,6.5"/>
<g id="ae53b15a-0666-42c7-9774-0b75586f7fb1">
	
		<linearGradient id="SVGID_3_" gradientUnits="userSpaceOnUse" x1="260.2428" y1="36.694" x2="260.2428" y2="47.3729" gradientTransform="matrix(1.01 -1.000000e-02 1.000000e-02 -1.14 -165.07 541.12)">
		<stop  offset="0" style="stop-color:#808080;stop-opacity:0.25"/>
		<stop  offset="0.54" style="stop-color:#808080;stop-opacity:0.12"/>
		<stop  offset="1" style="stop-color:#808080;stop-opacity:0.1"/>
	</linearGradient>
	<path class="st15" d="M167.1,496l-138.5,1.2c-3-0.2-5.2-3.1-5-6.4l0,0c0.2-3.3,2.8-5.9,5.8-5.7l138.5-1.2c3,0.2,5.2,3.1,5,6.4l0,0
		C172.6,493.7,170,496.3,167.1,496z"/>
</g>
<g id="f836891e-0226-4d83-80e6-73012d451be6">
	
		<linearGradient id="SVGID_4_" gradientUnits="userSpaceOnUse" x1="261.1278" y1="23.7851" x2="261.1278" y2="34.4558" gradientTransform="matrix(1.01 -1.000000e-02 1.000000e-02 -1.16 -166.47 541.35)">
		<stop  offset="0" style="stop-color:#808080;stop-opacity:0.25"/>
		<stop  offset="0.54" style="stop-color:#808080;stop-opacity:0.12"/>
		<stop  offset="1" style="stop-color:#808080;stop-opacity:0.1"/>
	</linearGradient>
	<path class="st16" d="M166.7,510.5l-139.1,1.4c-3-0.2-5.2-3.1-5-6.5l0,0c0.2-3.4,2.8-6,5.8-5.8l139.1-1.4c3,0.2,5.2,3.1,5,6.5l0,0
		C172.3,508.1,169.7,510.7,166.7,510.5z"/>
</g>
<g id="fbf5f82d-c22e-4678-ae3c-b7c3ab00a8a7">
	
		<linearGradient id="SVGID_5_" gradientUnits="userSpaceOnUse" x1="256.8907" y1="10.6711" x2="256.8907" y2="21.35" gradientTransform="matrix(1.01 -1.000000e-02 1.000000e-02 -1.18 -163.35 540.95)">
		<stop  offset="0" style="stop-color:#808080;stop-opacity:0.25"/>
		<stop  offset="0.54" style="stop-color:#808080;stop-opacity:0.12"/>
		<stop  offset="1" style="stop-color:#808080;stop-opacity:0.1"/>
	</linearGradient>
	<path class="st17" d="M165.1,524.9l-138.5,1.6c-3-0.2-5.2-3.2-5-6.6l0,0c0.2-3.5,2.8-6.1,5.8-5.9l138.5-1.6c3,0.2,5.2,3.2,5,6.6
		l0,0C170.7,522.4,168.1,525.1,165.1,524.9z"/>
</g>
<g>
	<path class="st18" d="M166.6,495.9l-137.1,0c-2.9-0.2-5.1-2.7-5-5.7l0,0c0.2-2.9,2.7-5.1,5.7-5l137.1,0c2.9,0.2,5.1,2.7,5,5.7l0,0
		C172.1,493.8,169.6,496,166.6,495.9z"/>
</g>
<g id="c03422b0-2e71-4490-8192-410f1daf55aa">
	<path class="st18" d="M165.7,510.1l-137.1,0c-2.9-0.2-5.1-2.7-5-5.7l0,0c0.2-2.9,2.7-5.1,5.7-5l137.1,0c2.9,0.2,5.1,2.7,5,5.7l0,0
		C171.2,508,168.6,510.2,165.7,510.1z"/>
</g>
<g>
	<path class="st18" d="M164.8,524.2l-137.1,0c-2.9-0.2-5.1-2.7-5-5.7l0,0c0.2-2.9,2.7-5.1,5.7-5l137.1-0.1c2.9,0.2,5.1,2.7,5,5.7
		l0,0C170.2,522.2,167.7,524.4,164.8,524.2z"/>
</g>
<g>
	
		<linearGradient id="SVGID_6_" gradientUnits="userSpaceOnUse" x1="259.631" y1="-23.6385" x2="259.631" y2="-9.8112" gradientTransform="matrix(1.02 -1.000000e-02 1.000000e-02 -1.13 -168.77 519.67)">
		<stop  offset="0" style="stop-color:#808080;stop-opacity:0.25"/>
		<stop  offset="0.54" style="stop-color:#808080;stop-opacity:0.12"/>
		<stop  offset="1" style="stop-color:#808080;stop-opacity:0.1"/>
	</linearGradient>
	<path class="st19" d="M163.8,543L27,544.2c-3.8-0.3-6.7-3.9-6.4-8.1l0,0c0.3-4.2,3.6-7.5,7.4-7.2l136.8-1.2
		c3.8,0.3,6.7,3.9,6.4,8.1l0,0C170.9,540,167.6,543.3,163.8,543z"/>
</g>
<path id="b140f40c-a8b2-4956-ad2e-452fd03b260d" class="st14" d="M162.1,542.5l-134.1,0.2c-3.7-0.3-6.6-3.5-6.3-7.2l0,0
	c0.3-3.7,3.5-6.6,7.2-6.3l134.1-0.2c3.7,0.3,6.6,3.5,6.3,7.2l0,0C169.1,539.9,165.8,542.7,162.1,542.5z"/>
<linearGradient id="SVGID_7_" gradientUnits="userSpaceOnUse" x1="227.1716" y1="-94.885" x2="227.1716" y2="12.5917" gradientTransform="matrix(1 0 0 -1 -155.85 483.21)">
	<stop  offset="0" style="stop-color:#808080;stop-opacity:0.25"/>
	<stop  offset="0.54" style="stop-color:#808080;stop-opacity:0.12"/>
	<stop  offset="1" style="stop-color:#808080;stop-opacity:0.1"/>
</linearGradient>
<path class="st20" d="M102.2,497.4c-1.2-1.2-4.7-2-7-1.2c-13.7-6.7-27.1-2-33.2,0.5c-0.7-0.4-0.8,0-1.6-0.3c0.4-0.7,0.6-1.5,0.5-2.3
	c0-0.2,0-0.4-0.1-0.6c5.2-1.5,8.2-5.4,8-11.1c-0.3-6.7-6-12-12.7-11.7c-6.7,0.3-12.6,3.9-12.4,10.6c0.2,5.2,2.7,10.2,7.4,11.7
	c-0.1,0.3,0.9,0,0.9,0.4c0,0.5-0.8,1.7-0.6,2.2c-6,0.4-7.5,4.5-7.6,10.4c0,0.9-0.1,1.7-0.3,2.6l-1.3,6.1c-0.5,2.3-0.3,4.7,0.5,6.8
	c-0.4,0.6-9.5,13.2,4.9,15.4c1.6,0.3,3.3,0.3,5,0c2.4,0.6,4.8,2.4,7.7,6.3c5.9,7.8-0.9,22.1-2.6,25.4c-1-0.2-2.1-0.1-2.9,0.5
	c-0.9,0.6-1.5,2.5-1.1,3.6c0.3,0.7,0.9,1.2,1.6,1.7c2,1.4,4.2,2.5,6.5,3.3c1.7,0.6,3.8,1,5.1-0.3c1.2-1.3,1.4-3.9,0-5.1
	c-0.6-0.5-1.3-1-2.1-1.3l5.1-18.1c1-5.3,2.1-8.4,1.2-11.9c0.7,0.7,0.2,0.3,0.9,1.3c5.7,7.8-3.5,22.8-3.5,22.8l-0.4,0.6
	c-0.5,0.2-0.2,0-0.6,0.4c-0.7,0.9-1.8,2.8-1.1,3.7c0.5,0.6,0.9,1.6,1.6,1.8c2.3,0.8,6,1.3,8.4,1.5c1.8,0.1,4.3-0.7,5.1-2.3
	c0.8-1.6-0.3-3.6-1.9-4.4c-1-0.5-2.5-0.8-4.1-0.9l4.1-14.4c3.3-18.1-7-23.9-13.9-25.5c0.5-1.5,0.7-2.3,0.7-2.3l0,0
	c1.2-2,1.7-4.2,1.6-6.5l-0.7-10.1c-0.1-1.4,0.2-1.7-0.3-2.9c10.4-5.7,24.1-2.3,25.9-1.9c0.5,0.8,1.6,1.3,2.6,1.5
	c1.3,0.3,2.6,0.4,3.9,0.4c1.2,0,2.6-0.3,3.1-1.3C103.3,501.1,103,498.2,102.2,497.4z"/>
<ellipse id="af98023a-ba84-4608-aef0-20973dc13f22" transform="matrix(0.9992 -3.908542e-02 3.908542e-02 0.9992 -19.2745 2.5763)" class="st21" cx="56.3" cy="494.2" rx="3.5" ry="3.8"/>
<circle id="b4eed79b-84f5-48c3-8b43-45013965af24" class="st22" cx="56.4" cy="482.2" r="11.7"/>
<path class="st22" d="M58.6,498.7c0,0,18.7-10.2,36.1-1.4l-1.8,3.5c0,0-16.9-4-27.5,2.6L58.6,498.7z"/>
<path class="st3" d="M56.5,528.6l-1.8,0.1c-0.2,0-0.4,0-0.5,0c-7.2,0-12.4-6.9-10.9-13.9l1.3-5.9c0.2-0.8,0.3-1.6,0.3-2.5
	c0.1-5.8,2.6-10.4,8.6-10.7l1.8-0.1c6.4-0.2,11.7,4.7,12,11.1l0.4,9.8C67.8,523,62.8,528.4,56.5,528.6z"/>
<path class="st23" d="M60.4,524.7c0,0,23.6,0.3,19.1,25.1l-6.2,20.6l-4.5-5c0,0,8.7-16.5,3.2-24.1c-5.5-7.5-11.2-5.4-11.2-5.4
	L60.4,524.7z"/>
<path id="ccb820de-2904-4fa6-ba82-eb5ab7edc6f5" class="st23" d="M48,523.6c0,0,27.2,0.4,22,28.2L62.9,575l-5.2-5.6
	c0,0,10.1-18.6,3.7-27s-12.9-6.1-12.9-6.1L48,523.6z"/>
<path class="st23" d="M65.9,523l-22.1-1.6c0,0-9.5,12.8,4.7,14.9S65.9,523,65.9,523z"/>
<g>
	
		<linearGradient id="SVGID_8_" gradientUnits="userSpaceOnUse" x1="212.9151" y1="-10.1948" x2="212.9151" y2="22.4739" gradientTransform="matrix(1 0 0 -1 -155.85 483.21)">
		<stop  offset="0" style="stop-color:#808080;stop-opacity:0.25"/>
		<stop  offset="0.54" style="stop-color:#808080;stop-opacity:0.12"/>
		<stop  offset="1" style="stop-color:#808080;stop-opacity:0.1"/>
	</linearGradient>
	<path class="st24" d="M70.9,461.7c-0.8-1.7-3.4-0.9-3.8,0.6c-0.9,3.7-4.9,5.1-8.1,5.8c-3.8,0.9-7.7,1.3-11.1,3.5
		c-5,3.2-6,8.9-4.9,14.2c0.1,1.6,0.4,3.1,1.1,4.5c1,2,2.8,3.1,4.7,3c0.9,0.3,1.9,0.2,3-0.4c2.6-1.4,4.3-5,5.3-7.5
		c1.1-2.8,2.4-5.7,4.5-7.9c2.4-2.7,5.1-3.8,7.6-6.4C71.5,468.4,72.4,464.9,70.9,461.7z"/>
</g>
<path id="d00fa5cc-a731-4142-8ea9-b3c3212fb43d" class="st23" d="M70,462.7c-0.8-1.6-3.2-0.9-3.5,0.6c-0.9,3.4-4.6,4.7-7.6,5.5
	c-3.6,0.8-7.3,1.2-10.4,3.2c-4.7,3-5.7,8.3-4.6,13.3c0.1,1.5,0.4,2.9,1,4.2c0.9,1.8,2.7,2.9,4.4,2.8c0.8,0.3,1.7,0.2,2.8-0.4
	c2.4-1.3,3.1-4.6,4.1-7c1.1-2.6,2.3-5.3,4.2-7.4c2.3-2.5,5.7-3.6,8-6C70.6,469,71.5,465.7,70,462.7z"/>
<path class="st22" d="M52.3,500.1c-2.4,5-7.1,17.7-1.5,24c10.7,6.7,0.8,0,0.8,0l10.6,7.6c0.5,0.4,1.2,0.3,1.6-0.1l3.8-3.7
	c0,0-11.7-5.5-11.2-8.9s2.1-17.2,2.1-17.2s-0.2-3.5-3-3.6C54.3,498.1,52.9,499,52.3,500.1z"/>
<path class="st22" d="M101.2,498.3c0.8,0.8,1.4,2.1,0.9,3.1c-0.5,1-1.9,1.3-3,1.3c-1.3,0-2.5-0.1-3.7-0.4c-1.2-0.3-2.5-0.9-2.7-2
	C91.8,495.7,99.2,496.3,101.2,498.3z"/>
<path class="st14" d="M70.4,565.3c-1.1,0-2.2,0.4-2.9,1.2c-0.7,0.8-0.9,2.1-0.3,3c0.4,0.6,1.2,0.9,1.9,1.1c2.2,0.8,4.5,1.2,6.9,1.4
	c1.7,0.1,3.8-0.1,4.6-1.6c0.8-1.5-0.3-3.5-1.8-4.3C76.8,565.2,72.7,565.2,70.4,565.3z"/>
<path class="st14" d="M58.3,568.9c-1.1-0.3-2.2-0.2-3.2,0.4s-1.5,1.8-1.1,2.8c0.3,0.7,0.9,1.2,1.5,1.6c1.9,1.3,4,2.4,6.3,3.2
	c1.6,0.6,3.7,1,4.9-0.3c1.2-1.3,0.7-3.4-0.6-4.6C64.5,570.6,60.5,569.4,58.3,568.9z"/>
<ellipse transform="matrix(0.9992 -3.908542e-02 3.908542e-02 0.9992 -20.6582 2.9634)" class="st22" cx="65.5" cy="529.8" rx="4.1" ry="2.4"/>
<linearGradient id="SVGID_9_" gradientUnits="userSpaceOnUse" x1="282.8708" y1="-95.9661" x2="282.8708" y2="13.5522" gradientTransform="matrix(1 0 0 -1 -155.85 483.21)">
	<stop  offset="0" style="stop-color:#808080;stop-opacity:0.25"/>
	<stop  offset="0.54" style="stop-color:#808080;stop-opacity:0.12"/>
	<stop  offset="1" style="stop-color:#808080;stop-opacity:0.1"/>
</linearGradient>
<path class="st25" d="M154.6,482.6c0.5-6.6-4.4-12.4-11.1-12.9c0,0,0,0,0,0c-6.6-0.5-13.7,5.1-14.2,11.7c-0.4,5.3,2.8,10.3,7.8,12.2
	c-0.4,1-0.5,2.1-0.1,3.1c-0.6,0.2-0.6-0.2-1.2,0.1c-6.1-2.7-19-7.3-32.4-1.5c-2-0.5-4.1,3-4,4.9c0,0.8,0.9,2.6,1.6,2.9
	c1.8,1,4.2-0.6,4.9-2.6c2.8-0.5,15.3-2.8,24.9,2.8c-0.2,0.5-0.4,1-0.5,1.5c-0.2,1,0.4,2,0,3l2.2,9.1c0.4,3.1,0,5.7,1,7.9
	c-0.3,0-0.7,0.3-1,0.3c-3.5,0.1-6.4,0.2-9.7,1.3c-4.3,1.5-7.9,4.6-10.1,8.7c-2,4-1.7,9.3,1.3,12.5c0.6,0.6,1.3,1.2,2.1,1.7
	c0,0.3,0.1,0.5,0.1,0.8l4.1,18.7c-0.5,0.6-0.9,1.2-1.2,1.7c-0.6,0.9-1,2.1-0.7,3.2s2.2,3,3.3,3c0.8,0,1.5-0.5,2.1-0.9
	c2-1.4,3.8-3,5.3-4.9c0.4-0.5,0.8-1,1.1-1.6l-0.5,1.3c-0.7,0.9-1.4,1.8-1.8,2.5c-0.6,0.9-1,2.1-0.7,3.2s2.2,2.7,3.3,2.7
	c0.8,0,1.5-0.5,2.1-0.9c2-1.4,3.8-3,5.3-4.9c1.2-1.4,2.9-5.2,2.1-6.8c-0.6-1.2-1.9-1.6-3.2-1.5c-0.9-2.1-2.1-3.1-3-6.7
	c4.5,3.2,8.9,5.5,14.3,6.3c-4.3-4-8-8.7-9.5-14.4c-0.6-2.4-0.9-5.3,0.8-7.2c1.6-1.7,4.2-1.9,6.4-2.7c4-1.4,7.1-5.3,7.5-9.6
	c0.3-3.1-1-5.7-3.8-5.9c1.4-1.7,2.2-3.8,2.3-6l0.9-11.8c0.4-5.1-2.8-9.8-7.7-11.4c0.3-0.8,0.3-1.7,0.1-2.6
	C150.3,492.3,154.2,487.9,154.6,482.6z M129,564.9c-1-0.3-2.1-0.2-3.1,0.2l0,0c-1.1-2.6-3.1-7.9-3.7-13.1c0.7,0.3,1.4,0.5,2.1,0.8
	c0.6,0.2,1.1,0.5,1.7,0.8L129,564.9z"/>
<path id="ca7c05dc-f404-4e8d-be4c-1e094d83bdb3" class="st22" d="M139.4,499.2c0,0-18.3-10.9-36.1-2.8l1.7,3.6c0,0,17-3.3,27.4,3.7
	L139.4,499.2z"/>
<path class="st22" d="M136.6,525.1c0,0-23.6-0.6-20.1,24.4l5.4,20.9l4.7-4.8c0,0-8.1-16.8-2.3-24.2c5.8-7.3,11.4-5,11.4-5
	L136.6,525.1z"/>
<path class="st22" d="M100.2,500.8c0,0.8,0.4,1.6,1.1,2c2.7,1.4,5.5-3.6,4.1-5.7C103.2,493.9,100.1,498.5,100.2,500.8z"/>
<path class="st26" d="M120.3,570.3c-0.6,0.9-1,2-0.7,3.1c0.2,1.1,1.2,2,2.3,2c0.7,0,1.4-0.4,2-0.9c1.9-1.4,3.7-3,5.2-4.8
	c1.1-1.3,2.2-3.1,1.4-4.7c-0.8-1.6-3-1.8-4.5-1C124,565.1,121.5,568.4,120.3,570.3z"/>
<path id="a69cafd2-284f-43ab-88bc-2406ede4d0f3" class="st22" d="M148.5,523.1c0,0-27.2-0.7-23.1,27.4l6.2,23.5l5.4-5.4
	c0,0-9.3-18.9-2.7-27.1c6.6-8.2,13.1-5.6,13.1-5.6L148.5,523.1z"/>
<path class="st26" d="M139.6,529.1L139.6,529.1c5.9,0.4,11-4,11.5-9.9l0.9-11.4c0.4-5.9-4-11-9.9-11.5l0,0c-5.2-0.4-10,3-11.2,8.1
	c-0.2,1-0.2,2,0,2.9l2.2,9.8C132.6,523,133.7,528.7,139.6,529.1z"/>
<ellipse transform="matrix(7.724108e-02 -0.997 0.997 7.724108e-02 -363.6162 597.9525)" class="st21" cx="141.2" cy="495.4" rx="3.8" ry="3.5"/>
<path id="a5a77078-24df-4f4d-8a14-08c4c7dce91f" class="st3" d="M136,525.4c-4.4,0-8.8,0.2-12.9,1.6c-4.1,1.4-8,4.1-10,7.9
	c-2,3.9-1.7,9,1.3,12.2c2.6,2.7,6.5,3.5,10,5c7.9,3.4,14,10.8,22.5,12.2c-4.2-4-7.2-9-8.6-14.6c-0.6-2.4-0.9-5.2,0.8-7
	c1.5-1.7,4-1.9,6.2-2.6c3.9-1.4,6.9-5.2,7.3-9.3c0.3-3.3-1.3-6.1-4.7-5.7C143.9,525.6,140,525.4,136,525.4z"/>
<path class="st22" d="M147.7,502.2c0,0,5.7,18.5-0.9,21.6l-10.3,8l-3.7-4.5c0,0,10.9-6,12.1-10.1c1.2-4.1-2.8-13.1-2.8-13.1
	S145.1,499.5,147.7,502.2z"/>
<ellipse transform="matrix(7.974522e-02 -0.9968 0.9968 7.974522e-02 -405.059 620.048)" class="st22" cx="133.3" cy="529.4" rx="2.3" ry="4.1"/>
<path class="st26" d="M128.9,572.6c-0.6,0.9-1,2-0.7,3.1c0.2,1.1,1.2,2,2.3,2c0.7,0,1.4-0.4,2-0.9c1.9-1.4,3.7-3,5.2-4.8
	c1.1-1.3,2.2-3.1,1.4-4.7c-0.8-1.6-3-1.8-4.5-1C132.6,567.4,130.2,570.7,128.9,572.6z"/>
<circle class="st22" cx="142.2" cy="482.8" r="11.7"/>
<g>
	
		<linearGradient id="SVGID_10_" gradientUnits="userSpaceOnUse" x1="311.7686" y1="-21.0322" x2="311.7686" y2="17.5524" gradientTransform="matrix(1 0 0 -1 -155.85 483.21)">
		<stop  offset="0" style="stop-color:#808080;stop-opacity:0.25"/>
		<stop  offset="0.54" style="stop-color:#808080;stop-opacity:0.12"/>
		<stop  offset="1" style="stop-color:#808080;stop-opacity:0.1"/>
	</linearGradient>
	<path class="st27" d="M176.5,488.9c-1.4-1.4-3.1-2.5-4.5-4c-1.4-1.5-2.4-3.2-3.2-5.1c-1.5-3.7-2.6-7.6-5.4-10.6
		c-3.4-3.7-8-4-12.7-3.3c-4.2,0.6-8.3,1.4-12.4,2.5c-0.1,0-0.2-0.1-0.3-0.1c-2.3-0.9-5,0.4-5.8,2.7c-0.2,0.6-0.3,1.3-0.2,2
		c-0.3,0.6-0.3,1.4,0.3,2.1c3,3.2,5.5,6.2,6.5,10.6c1,4.1,2.3,7.4,5.8,9.9c3.5,2.5,7.7,4.5,11.7,6.1c4.3,1.8,8.9,2.9,13.6,2.6
		c3.4-0.3,7.3-1.5,9-4.7C181.2,495.8,179.3,491.6,176.5,488.9z"/>
</g>
<path id="f5bb29f6-add4-4074-96f2-ee2c4929409b" class="st28" d="M175.9,488.8c-1.4-1.4-3-2.5-4.4-3.8c-1.4-1.4-2.3-3.1-3.1-4.9
	c-1.5-3.5-2.5-7.4-5.2-10.3c-3.3-3.6-7.7-3.8-12.3-3.2c-4,0.6-8.1,1.4-12,2.4c-0.1,0-0.2-0.1-0.3-0.1c-2.2-0.8-4.8,0.4-5.6,2.6
	c-0.2,0.6-0.3,1.3-0.2,1.9c-0.3,0.6-0.3,1.3,0.3,2c2.9,3.1,5.3,6,6.3,10.3c0.9,3.9,2.2,7.1,5.7,9.6s7.5,4.3,11.4,5.9
	c4.2,1.7,8.7,2.8,13.2,2.5c3.3-0.3,7-1.5,8.8-4.6C180.4,495.5,178.6,491.4,175.9,488.8z"/>
<linearGradient id="SVGID_11_" gradientUnits="userSpaceOnUse" x1="465.1606" y1="161.4196" x2="465.1606" y2="268.8469" gradientTransform="matrix(1 0 0 -1 -133.4507 520.5804)">
	<stop  offset="0" style="stop-color:#808080;stop-opacity:0.25"/>
	<stop  offset="0.5351" style="stop-color:#808080;stop-opacity:0.12"/>
	<stop  offset="1" style="stop-color:#808080;stop-opacity:0.1"/>
</linearGradient>
<path class="st29" d="M342.6,314.5c-4.7-9.5-0.9-17.7,5.6-23.5c9-4.2,17.9-2.3,24.4,6.1c4.3-2.5,9.7-3,14.2-2
	c3.4-13,0.2-28.5-11.3-36.9c-15-10.9-35.9-7.6-46.8,7.3c-15-10.9-35.9-7.6-46.8,7.3c-10.9,15-7.6,35.9,7.3,46.8l54.2,39.5l14.4-19.9
	L342.6,314.5z"/>
<linearGradient id="SVGID_12_" gradientUnits="userSpaceOnUse" x1="503.2383" y1="176.3442" x2="503.2383" y2="230.4798" gradientTransform="matrix(1 0 0 -1 -133.4507 520.5804)">
	<stop  offset="0" style="stop-color:#808080;stop-opacity:0.25"/>
	<stop  offset="0.5351" style="stop-color:#808080;stop-opacity:0.12"/>
	<stop  offset="1" style="stop-color:#808080;stop-opacity:0.1"/>
</linearGradient>
<path class="st30" d="M372.8,298.4c-4.7-8-14.9-10.7-22.9-6c-8,4.7-10.7,14.9-6,22.9c0,0,0,0,0,0l16.9,28.9l28.9-16.9
	c8-4.7,10.7-14.9,6-22.9C391,296.4,380.8,293.7,372.8,298.4z"/>
<path class="st31" d="M372.7,298.9c-4.5-7.6-14.2-10.2-21.9-5.7c-7.6,4.5-10.2,14.2-5.7,21.8l16.1,27.6l27.6-16.1
	c7.6-4.5,10.2-14.2,5.7-21.8C390.1,297.1,380.3,294.5,372.7,298.9z"/>
<path class="st32" d="M388.5,326.7c7.6-4.5,10.2-14.2,5.7-21.8c-4.4-7.6-14.2-10.2-21.8-5.8l15.9,27.7L388.5,326.7z"/>
<path class="st3" d="M385.7,294.4c-4.4-1-9.1-0.3-13,2c-5-8.5-16-11.4-24.5-6.4c-8.5,5-11.4,15.9-6.4,24.5l14.2,24.3l-13.2,18.1
	l-27-19.7l2.3-1.3c9.7-5.7,13-18.1,7.3-27.8c-5.2-8.8-16.1-12.5-25.5-8.5c-0.8,0.3-1.6,0.7-2.3,1.2c-4-6.9-11.6-10.8-19.5-10
	c0.1-1.6,0.4-3.2,0.7-4.8c0-0.2,0.1-0.4,0.1-0.5c0.2-0.7,0.4-1.4,0.6-2.1c0-0.1,0-0.1,0.1-0.2c0.1-0.3,0.2-0.6,0.3-0.9
	c0.1-0.3,0.3-0.7,0.4-1c0.1-0.2,0.1-0.3,0.2-0.5c0.1-0.2,0.1-0.3,0.2-0.5c0,0,0,0,0,0c0.1-0.2,0.2-0.3,0.2-0.5c0,0,0,0,0-0.1
	c0.1-0.1,0.1-0.3,0.2-0.4c0.1-0.2,0.2-0.3,0.2-0.5c0.2-0.4,0.4-0.7,0.6-1.1c0.1-0.1,0.1-0.3,0.2-0.4c0.1-0.2,0.2-0.3,0.3-0.5
	c0-0.1,0.1-0.1,0.1-0.2c0.2-0.4,0.5-0.8,0.7-1.2c0.1-0.1,0.1-0.2,0.2-0.3c0.1-0.1,0.2-0.2,0.3-0.4c0.1-0.1,0.2-0.3,0.3-0.4
	c10.4-14.3,30.5-17.4,44.8-7c10.4-14.3,30.5-17.4,44.8-7C384.3,268,389.1,281.6,385.7,294.4z"/>
<path class="st31" d="M295.6,303.5c-5-8.6-16.1-11.5-24.7-6.5c-8.6,5-11.5,16.1-6.5,24.7l18.2,31.2l31.2-18.2
	c8.6-5,11.5-16.1,6.5-24.7C315.3,301.4,304.2,298.5,295.6,303.5L295.6,303.5z"/>
<path class="st32" d="M328.9,267.3l-29,32.2c-0.8,0.3-1.6,0.7-2.3,1.2c-4-6.9-11.6-10.8-19.5-10c0.1-1.6,0.4-3.2,0.7-4.8
	c0-0.2,0.1-0.4,0.1-0.5c0.2-0.7,0.4-1.4,0.6-2.1c0-0.1,0-0.1,0.1-0.2c0.1-0.3,0.2-0.6,0.3-0.9c0.1-0.3,0.3-0.7,0.4-1
	c0.1-0.2,0.1-0.3,0.2-0.5c0.1-0.2,0.1-0.3,0.2-0.5c0,0,0,0,0,0c0.1-0.2,0.2-0.3,0.2-0.5c0,0,0,0,0-0.1c0.1-0.1,0.1-0.3,0.2-0.4
	c0.1-0.2,0.2-0.3,0.2-0.5c0.2-0.4,0.4-0.7,0.6-1.1c0.1-0.1,0.1-0.3,0.2-0.4c0.1-0.2,0.2-0.3,0.3-0.5c0-0.1,0.1-0.1,0.1-0.2
	c0.2-0.4,0.5-0.8,0.7-1.2c0.1-0.1,0.1-0.2,0.2-0.3c0.1-0.1,0.2-0.2,0.3-0.4c0.1-0.1,0.2-0.3,0.3-0.4
	C294.5,260,314.5,256.8,328.9,267.3C328.8,267.2,328.8,267.2,328.9,267.3L328.9,267.3z"/>
</svg>
